<svg xmlns="http://www.w3.org/2000/svg" xmlns:xlink="http://www.w3.org/1999/xlink" width="1080" zoomAndPan="magnify" viewBox="0 0 810 1439.999935" height="1920" preserveAspectRatio="xMidYMid meet" version="1.0"><defs><clipPath id="5fd85f0c65"><path d="M 198 679 L 627.753906 679 L 627.753906 892 L 198 892 Z M 198 679 " clip-rule="nonzero"/></clipPath></defs><path fill="#fc4138" d="M 142.011719 677.714844 C 151.265625 698.519531 154.15625 730.191406 160.058594 739.207031 C 160.058594 739.207031 174.863281 721.523438 176.484375 718.285156 C 177.988281 715.050781 180.996094 713.199219 184.347656 712.96875 C 184.347656 712.96875 187.355469 704.53125 190.480469 705.917969 C 194.066406 707.765625 206.441406 719.902344 205.75 721.058594 C 205.054688 722.214844 202.972656 727.648438 202.972656 727.648438 C 202.972656 727.648438 206.441406 736.203125 205.515625 739.671875 C 203.203125 748.570312 191.867188 755.96875 188.167969 765.332031 C 191.867188 770.1875 202.277344 787.988281 202.277344 787.988281 C 202.277344 787.988281 175.90625 793.1875 166.652344 791.800781 C 157.398438 790.414062 150.570312 790.066406 147.449219 788.101562 C 147.449219 788.101562 131.714844 787.871094 124.082031 796.65625 C 116.332031 805.554688 72.839844 829.367188 72.839844 829.367188 C 72.839844 829.367188 67.980469 829.136719 66.476562 827.519531 C 64.972656 825.902344 63.003906 815.152344 63.003906 815.152344 C 63.003906 815.152344 49.933594 809.023438 49.355469 803.589844 C 49.007812 798.390625 49.820312 791.339844 51.207031 785.90625 C 53.40625 777.238281 54.445312 739.324219 58.496094 713.664062 C 62.542969 688 84.636719 665.578125 84.636719 665.578125 C 84.636719 665.578125 82.671875 659.101562 85.332031 655.40625 C 87.992188 651.820312 95.972656 651.128906 98.054688 648.699219 C 103.027344 641.417969 109.96875 642.691406 114.367188 645.925781 C 114.710938 645.347656 115.984375 644.65625 116.449219 644.078125 C 117.488281 642.691406 118.761719 641.070312 120.496094 640.957031 C 122.578125 640.726562 124.199219 642.574219 125.585938 644.191406 C 129.632812 648.816406 134.378906 652.746094 138.886719 656.90625 C 139.699219 657.714844 140.625 658.527344 141.085938 659.449219 C 141.550781 660.257812 141.664062 661.183594 141.78125 661.992188 C 142.128906 664.765625 142.128906 667.65625 142.011719 670.429688 C 142.011719 672.511719 141.894531 674.59375 141.894531 676.671875 " fill-opacity="1" fill-rule="nonzero"/><path fill="#171717" d="M 357.863281 876.992188 C 354.738281 874.332031 364.917969 859.304688 368.039062 856.417969 C 371.164062 853.527344 381.34375 868.320312 376.949219 874.796875 C 372.550781 881.269531 357.863281 876.992188 357.863281 876.992188 Z M 70.523438 826.246094 C 76.425781 838.382812 98.75 845.433594 98.75 845.433594 C 98.75 845.433594 191.171875 831.679688 201.121094 831.796875 C 211.070312 832.027344 228.191406 804.515625 228.191406 804.515625 C 211.53125 784.171875 191.753906 786.484375 167.691406 783.824219 C 143.632812 781.167969 137.847656 768.914062 137.847656 768.914062 C 102.566406 787.292969 95.625 820.929688 70.523438 826.246094 Z M 70.523438 826.246094 " fill-opacity="1" fill-rule="nonzero"/><path fill="#ffa382" d="M 151.613281 853.527344 C 155.082031 852.253906 159.363281 864.160156 160.058594 864.738281 C 161.5625 867.167969 171.855469 874.332031 177.175781 875.949219 C 177.523438 876.066406 186.316406 892.941406 174.980469 893.753906 C 166.417969 894.445312 156.703125 894.445312 148.605469 893.058594 C 146.058594 893.289062 143.632812 890.398438 143.632812 890.398438 C 143.632812 890.398438 142.472656 891.324219 141.085938 892.132812 C 140.390625 892.597656 137.5 889.476562 136.691406 889.589844 C 134.609375 889.9375 134.144531 893.519531 134.144531 893.519531 C 134.144531 893.519531 116.792969 889.476562 107.886719 896.0625 C 106.847656 895.832031 105.804688 895.601562 104.765625 895.140625 C 92.617188 890.746094 81.050781 867.746094 78.507812 865.894531 C 76.769531 865.085938 73.183594 864.738281 69.714844 860.925781 C 67.402344 858.382812 65.085938 842.660156 69.253906 840.234375 C 71.566406 838.847656 74.6875 837.691406 78.621094 837.113281 C 82.4375 834.570312 84.984375 830.523438 88.800781 836.1875 C 88.800781 836.1875 111.359375 845.667969 115.058594 845.320312 C 118.761719 844.855469 115.523438 848.09375 116.792969 850.636719 C 118.066406 853.179688 117.835938 855.144531 114.480469 858.496094 C 112.398438 861.847656 117.371094 877.683594 117.371094 877.683594 C 117.371094 877.683594 116.214844 866.355469 124.890625 857.226562 C 124.890625 857.226562 141.78125 854.914062 144.554688 854.335938 C 147.332031 853.757812 151.613281 853.527344 151.613281 853.527344 Z M 151.613281 853.527344 " fill-opacity="1" fill-rule="nonzero"/><path fill="#6302a5" d="M 163.988281 620.035156 C 163.066406 621.304688 161.90625 622.460938 161.214844 623.847656 C 160.171875 626.160156 160.636719 628.820312 160.636719 631.363281 C 160.636719 636.449219 158.785156 641.535156 155.3125 645.347656 C 154.042969 646.734375 152.652344 647.890625 150.917969 648.699219 C 149.300781 649.394531 147.449219 649.625 145.597656 649.855469 C 140.277344 650.550781 135.070312 651.242188 129.75 650.78125 C 126.859375 650.550781 124.082031 649.972656 121.191406 649.277344 C 119.457031 648.929688 117.257812 648.355469 116.101562 647.082031 L 114.132812 645.8125 C 114.132812 645.8125 114.828125 638.296875 110.78125 631.128906 C 107.308594 625.003906 105.113281 599.691406 121.769531 592.640625 C 139.582031 574.605469 168.269531 593.679688 170.238281 594.027344 C 172.203125 594.488281 174.515625 592.640625 174.515625 592.640625 C 174.515625 592.640625 174.746094 602.117188 170.699219 605.933594 C 166.996094 609.628906 167.113281 615.757812 163.988281 620.035156 Z M 434.785156 820.699219 C 434.785156 820.699219 425.53125 809.023438 419.054688 802.4375 C 412.574219 795.847656 379.261719 838.730469 377.640625 841.851562 C 376.023438 844.972656 372.089844 864.855469 372.089844 864.855469 C 372.089844 864.855469 361.792969 871.097656 357.976562 877.105469 C 357.976562 877.105469 378.21875 892.710938 417.433594 892.710938 C 417.433594 892.710938 437.5625 848.789062 437.332031 838.039062 C 436.984375 827.171875 434.785156 820.699219 434.785156 820.699219 Z M 434.785156 820.699219 " fill-opacity="1" fill-rule="nonzero"/><path fill="#fd725d" d="M 170.816406 605.933594 C 171.742188 609.863281 176.484375 621.535156 176.597656 623.269531 C 176.714844 625.003906 173.9375 628.125 173.9375 629.976562 C 173.9375 631.824219 178.21875 639.683594 177.753906 641.1875 C 177.292969 642.691406 174.054688 644.078125 173.707031 644.421875 C 173.359375 644.769531 174.746094 647.082031 174.402344 648.238281 C 174.054688 649.394531 168.15625 648.929688 171.972656 651.472656 C 172.203125 651.589844 172.433594 652.050781 172.664062 652.863281 C 172.78125 654.015625 170.582031 654.59375 170.121094 657.371094 C 169.542969 660.144531 170.121094 664.074219 163.988281 664.074219 C 158.667969 664.191406 149.761719 658.757812 150.917969 665.691406 C 150.226562 666.15625 149.53125 666.847656 148.835938 667.542969 C 144.09375 672.511719 142.242188 677.597656 142.242188 677.597656 C 142.242188 677.597656 135.535156 662.109375 130.214844 656.558594 C 124.890625 651.011719 116.449219 646.964844 116.449219 646.964844 C 116.449219 646.964844 119.222656 645.925781 120.378906 644.308594 L 119.570312 646.734375 C 119.570312 646.734375 122.117188 647.199219 124.082031 645.234375 L 122.808594 647.777344 C 122.808594 647.777344 126.742188 648.46875 129.519531 645.234375 L 128.476562 647.429688 C 128.476562 647.429688 132.988281 646.042969 135.1875 640.148438 C 140.625 642.574219 140.160156 632.863281 140.160156 632.863281 C 139.351562 627.316406 142.820312 625.234375 146.40625 625.121094 C 149.992188 625.003906 152.886719 630.089844 152.886719 630.089844 C 152.886719 630.089844 156.816406 628.472656 157.511719 626.390625 C 158.207031 624.3125 157.398438 611.597656 159.59375 608.011719 C 159.363281 608.128906 166.652344 610.207031 170.816406 605.933594 Z M 190.363281 706.035156 C 190.363281 706.035156 198 717.359375 203.667969 719.789062 C 203.667969 719.789062 213.613281 712.96875 216.96875 704.066406 L 209.449219 691.238281 C 209.449219 691.238281 198.460938 689.964844 196.261719 691.238281 C 194.179688 692.507812 191.40625 705.109375 190.363281 706.035156 Z M 228.191406 804.632812 C 228.191406 804.632812 204.707031 814.339844 198.925781 823.472656 C 169.425781 813.996094 131.601562 831.101562 116.679688 834.453125 C 101.757812 837.691406 88.6875 836.304688 88.6875 836.304688 C 91.578125 846.589844 95.742188 848.210938 103.722656 849.132812 C 106.152344 846.128906 112.050781 847.398438 116.792969 850.753906 C 116.792969 850.753906 123.503906 847.632812 127.550781 847.054688 L 124.890625 857.339844 C 129.75 859.191406 130.214844 861.15625 134.609375 863.8125 C 139.003906 866.472656 143.746094 862.890625 143.746094 862.890625 C 142.011719 858.613281 145.714844 856.183594 151.726562 853.640625 L 150.339844 845.898438 C 150.339844 845.898438 196.148438 848.789062 216.738281 836.304688 C 235.015625 825.089844 228.191406 804.632812 228.191406 804.632812 Z M 228.191406 804.632812 " fill-opacity="1" fill-rule="nonzero"/><path fill="#fc4138" d="M 210.144531 702.449219 C 210.839844 707.421875 206.328125 714.585938 204.476562 713.085938 C 202.625 711.582031 205.171875 708.808594 205.402344 706.035156 C 205.402344 706.035156 209.449219 697.59375 210.144531 702.449219 Z M 210.144531 702.449219 " fill-opacity="1" fill-rule="nonzero"/><g clip-path="url(#5fd85f0c65)"><path fill="#171717" d="M 332.875 845.320312 C 332.761719 850.519531 336.578125 854.105469 337.964844 857.457031 C 338.429688 858.613281 330.910156 870.980469 324.894531 871.558594 C 318.878906 872.136719 311.9375 872.136719 311.9375 872.136719 C 311.9375 872.136719 312.285156 873.640625 312.515625 875.375 C 312.863281 877.339844 303.261719 890.167969 298.519531 890.746094 C 293.777344 891.324219 289.382812 888.667969 282.441406 888.089844 C 275.617188 887.394531 268.558594 890.863281 258.496094 891.09375 C 246.003906 890.976562 238.714844 888.089844 232.355469 881.730469 C 232.007812 880.804688 231.890625 879.882812 232.121094 879.070312 C 236.054688 864.96875 254.214844 869.363281 256.761719 869.246094 C 259.304688 869.015625 269.023438 860.925781 270.0625 859.304688 C 275.152344 847.285156 282.789062 851.445312 282.789062 851.445312 C 282.789062 851.445312 300.023438 844.164062 308.003906 838.269531 C 315.988281 832.375 332.992188 838.269531 332.875 845.320312 Z M 580.535156 782.667969 C 574.289062 750.652344 541.902344 753.65625 540.976562 757.238281 C 539.355469 763.828125 537.390625 769.375 536.578125 776.082031 C 535.769531 782.785156 536.578125 789.835938 539.933594 795.730469 C 541.4375 798.390625 543.289062 800.816406 544.328125 803.707031 C 545.949219 808.332031 545.023438 813.53125 543.984375 818.273438 C 543.519531 820.121094 543.171875 822.085938 544.214844 823.703125 C 544.90625 824.746094 546.066406 825.324219 547.222656 825.902344 C 551.617188 828.097656 556.128906 830.292969 560.988281 831.5625 C 565.730469 832.835938 570.933594 833.066406 575.675781 831.332031 C 576.835938 830.871094 577.992188 830.410156 578.800781 829.484375 C 580.421875 827.75 580.765625 825.207031 581 822.78125 C 581.460938 818.964844 582.503906 815.265625 583.773438 811.683594 C 584.816406 808.910156 586.089844 806.132812 586.320312 803.246094 C 586.667969 798.273438 579.84375 787.753906 580.535156 782.667969 Z M 613.503906 827.519531 C 612 823.703125 611.304688 819.542969 609.109375 816.074219 C 606.214844 811.335938 600.664062 808.214844 594.996094 808.214844 L 587.476562 824.28125 C 588.054688 830.175781 590.945312 835.609375 595.109375 839.886719 C 599.160156 844.164062 604.363281 847.285156 609.917969 849.367188 C 608.527344 847.515625 607.488281 845.203125 607.257812 842.777344 C 608.527344 844.742188 611.535156 845.78125 613.851562 846.359375 C 616.28125 846.9375 618.824219 847.285156 621.253906 846.9375 C 623.683594 846.589844 626.226562 845.550781 627.5 843.46875 C 621.136719 840.003906 616.164062 834.222656 613.503906 827.519531 Z M 198.925781 690.773438 C 198.925781 690.773438 209.335938 691.007812 210.375 692.855469 C 211.53125 694.820312 211.996094 698.519531 205.285156 697.710938 C 205.285156 697.710938 206.097656 703.953125 205.285156 705.917969 C 205.285156 705.917969 225.183594 707.535156 224.140625 692.742188 C 223.101562 675.285156 199.386719 676.558594 198.925781 690.773438 Z M 198.925781 690.773438 " fill-opacity="1" fill-rule="nonzero"/></g><path fill="#fc4138" d="M 418.9375 802.4375 C 412.691406 804.632812 409.453125 812.722656 409.453125 812.722656 L 407.253906 811.21875 C 386.433594 827.867188 388.167969 858.035156 388.167969 858.035156 C 380.535156 857.804688 371.972656 864.738281 371.972656 864.738281 C 355.546875 852.253906 350.921875 833.53125 347.566406 827.289062 C 346.292969 823.820312 345.484375 819.660156 345.484375 819.660156 C 345.484375 819.660156 347.449219 783.59375 364.222656 776.542969 C 364.222656 776.542969 390.597656 780.9375 398.117188 778.625 C 406.5625 787.523438 413.964844 796.65625 418.9375 802.4375 Z M 578.453125 807.753906 C 578.453125 807.753906 563.183594 813.1875 549.882812 822.433594 C 549.882812 822.433594 533.917969 821.046875 531.375 818.847656 C 528.828125 816.652344 522.8125 809.253906 522.8125 809.253906 C 522.8125 809.253906 494.472656 809.488281 486.609375 807.175781 C 478.742188 804.863281 470.761719 810.875 468.5625 818.273438 C 459.769531 818.15625 442.535156 811.453125 434.785156 820.699219 C 425.183594 835.609375 423.101562 861.503906 421.945312 865.664062 C 420.789062 869.824219 415.929688 883.925781 417.433594 892.710938 C 417.433594 892.710938 459.65625 892.710938 479.320312 892.710938 C 498.984375 892.710938 535.308594 878.03125 545.949219 867.746094 C 551.039062 865.085938 583.660156 852.371094 600.433594 832.140625 Z M 294.125 817.460938 C 287.414062 839.425781 282.789062 851.445312 282.789062 851.445312 C 286.953125 853.410156 281.746094 861.964844 281.746094 861.964844 C 285.910156 862.425781 286.144531 867.511719 291.695312 867.511719 C 297.246094 867.511719 300.832031 858.496094 308.816406 862.425781 C 313.789062 850.519531 322.464844 844.742188 322.464844 844.742188 C 322.464844 844.742188 327.554688 842.777344 331.371094 844.511719 C 331.949219 844.742188 332.414062 845.089844 332.875 845.550781 C 334.496094 840.003906 339.351562 836.652344 343.285156 833.183594 C 339.351562 832.71875 330.792969 817.808594 330.792969 817.808594 C 313.441406 817.925781 300.488281 821.738281 294.125 817.460938 Z M 145.019531 646.621094 C 146.523438 647.890625 150.570312 648.585938 151.726562 646.621094 C 152.886719 644.65625 152.652344 642.574219 151.726562 644.078125 C 150.570312 646.964844 147.332031 646.621094 146.058594 644.539062 C 144.789062 642.574219 140.277344 638.414062 139.8125 632.980469 C 139.8125 632.980469 136.921875 634.25 134.839844 640.03125 C 137.617188 643.5 143.632812 645.464844 145.019531 646.621094 Z M 144.324219 630.667969 C 144.789062 630.207031 145.367188 629.742188 145.945312 629.28125 C 146.292969 629.050781 146.753906 628.820312 147.21875 628.820312 C 147.796875 628.820312 148.140625 629.28125 148.488281 629.628906 C 149.066406 630.320312 149.761719 631.128906 149.644531 632.054688 C 149.53125 633.09375 148.605469 633.90625 147.679688 634.367188 C 147.21875 634.597656 146.753906 634.828125 146.640625 635.175781 C 146.523438 635.523438 146.640625 635.871094 146.871094 636.214844 C 147.679688 637.605469 148.375 639.222656 149.414062 640.148438 C 152.308594 641.535156 148.835938 636.679688 149.066406 635.753906 C 149.300781 634.945312 150.226562 634.714844 150.570312 632.863281 C 150.804688 631.015625 149.761719 626.738281 146.640625 627.894531 C 143.515625 629.050781 142.589844 631.59375 144.324219 630.667969 Z M 146.058594 655.40625 C 143.976562 656.328125 147.332031 661.878906 150.6875 665.808594 C 154.390625 663.148438 157.859375 663.84375 162.484375 663.957031 C 157.164062 663.378906 148.835938 654.25 146.058594 655.40625 Z M 178.101562 876.183594 C 177.871094 876.183594 177.523438 876.066406 177.292969 875.949219 C 177.175781 876.066406 177.0625 876.066406 177.0625 876.183594 C 177.0625 876.183594 173.476562 882.425781 174.863281 892.019531 C 174.980469 892.710938 174.980469 893.289062 174.980469 893.867188 C 186.199219 892.941406 195.453125 890.976562 195.800781 889.242188 C 195.683594 873.0625 183.078125 876.992188 178.101562 876.183594 Z M 117.257812 877.683594 C 117.257812 877.683594 103.609375 889.359375 108.003906 896.0625 C 119.800781 898.605469 134.261719 893.519531 134.261719 893.519531 C 132.179688 883.582031 128.128906 879.996094 117.257812 877.683594 Z M 127.4375 846.824219 L 125.816406 852.949219 C 132.875 850.636719 145.367188 849.132812 150.6875 848.554688 L 150.226562 845.667969 C 150.226562 845.78125 138.078125 844.164062 127.4375 846.824219 Z M 127.4375 846.824219 " fill-opacity="1" fill-rule="nonzero"/><path fill="#6302a5" d="M 253.058594 881.730469 C 252.480469 881.269531 252.597656 880.460938 252.710938 879.765625 C 253.058594 877.683594 253.636719 875.71875 254.449219 873.871094 C 254.796875 872.945312 255.257812 872.019531 255.835938 871.210938 C 256.414062 870.402344 257.109375 870.054688 256.992188 871.328125 C 256.761719 874.5625 254.214844 877.453125 254.214844 880.691406 C 254.214844 881.152344 254.214844 881.730469 253.871094 881.847656 C 253.523438 881.960938 253.292969 881.847656 253.058594 881.730469 Z M 249.125 875.835938 C 249.820312 875.027344 251.902344 873.0625 251.902344 871.90625 C 251.902344 870.289062 249.707031 872.714844 249.242188 873.175781 C 248.664062 873.871094 248.203125 874.679688 248.085938 875.488281 C 248.085938 875.71875 248.085938 875.949219 248.316406 876.066406 C 248.546875 876.414062 248.894531 876.066406 249.125 875.835938 Z M 266.476562 867.28125 C 268.558594 865.777344 270.757812 864.390625 273.070312 863.121094 C 273.882812 862.660156 274.691406 862.195312 275.617188 861.964844 C 276.542969 861.734375 277.582031 861.847656 278.277344 862.3125 C 278.855469 862.660156 279.316406 863.351562 279.78125 863.929688 C 280.242188 864.507812 280.9375 865.664062 281.632812 864.96875 C 282.09375 864.507812 281.863281 863.929688 281.632812 863.699219 C 280.820312 863.003906 280.011719 862.195312 279.203125 861.503906 C 278.855469 861.15625 278.507812 860.808594 278.046875 860.691406 C 277.234375 860.347656 276.195312 860.460938 275.386719 860.691406 C 269.371094 862.3125 265.089844 867.746094 259.191406 870.054688 C 258.726562 870.289062 258.613281 870.980469 258.84375 871.441406 C 261.621094 870.75 264.050781 868.898438 266.476562 867.28125 Z M 301.875 887.277344 C 301.875 887.277344 298.636719 888.550781 294.238281 887.277344 C 283.019531 880.460938 273.304688 888.320312 254.796875 888.203125 C 241.492188 888.089844 235.015625 883.925781 232.46875 881.613281 C 234.4375 886.816406 245.195312 892.828125 257.6875 892.941406 C 267.867188 892.710938 275.5 890.632812 282.324219 891.324219 C 289.152344 892.019531 293.429688 893.984375 298.171875 893.519531 C 302.914062 892.941406 312.167969 886.585938 313.09375 880.921875 C 313.210938 879.882812 312.863281 877.453125 312.515625 875.375 C 303.609375 873.292969 301.875 887.277344 301.875 887.277344 Z M 325.242188 869.476562 C 323.851562 870.171875 320.730469 870.632812 317.835938 870.980469 C 315.292969 867.28125 312.285156 861.734375 310.320312 858.84375 C 309.742188 859.882812 309.277344 861.039062 308.699219 862.195312 C 308.582031 862.542969 311.128906 870.054688 311.824219 872.136719 C 311.824219 872.136719 312.054688 872.253906 312.402344 872.253906 C 314.019531 872.714844 318.53125 873.753906 323.390625 873.292969 C 329.40625 872.714844 337.386719 865.546875 338.3125 860.808594 C 338.542969 859.652344 338.3125 858.613281 337.851562 857.574219 C 326.050781 854.566406 327.207031 868.898438 325.242188 869.476562 Z M 542.480469 819.425781 C 540.164062 824.746094 529.175781 832.027344 533.457031 833.066406 C 537.734375 834.109375 544.097656 826.132812 547.453125 823.933594 C 548.957031 821.390625 544.792969 814.226562 542.480469 819.425781 Z M 468.5625 818.273438 C 466.597656 818.273438 464.28125 817.925781 461.738281 817.460938 C 459.65625 834.453125 470.992188 840.003906 470.414062 837.34375 C 469.835938 834.570312 467.40625 825.554688 468.5625 818.273438 Z M 486.261719 850.753906 C 481.519531 849.597656 477.238281 846.589844 478.046875 849.019531 C 479.4375 853.296875 493.203125 854.914062 495.746094 852.832031 C 499.101562 849.132812 491.003906 852.023438 486.261719 850.753906 Z M 539.933594 850.40625 C 539.585938 849.019531 539.585938 847.515625 539.703125 846.128906 C 539.816406 845.203125 539.816406 843.933594 538.894531 843.585938 C 536.464844 842.546875 536.8125 847.054688 536.8125 848.09375 C 536.925781 850.867188 537.390625 853.527344 538.777344 855.953125 C 539.472656 857.226562 540.511719 858.496094 541.902344 858.960938 C 542.132812 859.074219 542.363281 859.074219 542.59375 859.074219 C 542.941406 858.960938 543.171875 858.496094 543.171875 858.035156 C 543.171875 857.574219 542.941406 857.226562 542.710938 856.878906 C 541.554688 854.914062 540.511719 852.71875 539.933594 850.40625 Z M 114.828125 662.109375 C 120.035156 664.421875 137.269531 678.523438 139.121094 680.023438 C 141.085938 681.527344 143.863281 682.453125 141.894531 680.140625 C 139.929688 677.828125 118.296875 658.871094 113.207031 658.179688 C 108.117188 657.601562 92.15625 660.257812 84.289062 665.460938 C 81.859375 670.085938 106.269531 658.179688 114.828125 662.109375 Z M 116.449219 651.9375 C 119.222656 653.09375 118.875 649.972656 113.441406 649.394531 C 108.003906 648.816406 102.335938 647.542969 101.0625 649.164062 C 98.980469 651.359375 111.125 650.085938 116.449219 651.9375 Z M 169.773438 750.996094 C 173.589844 752.5 183.191406 759.898438 185.042969 762.558594 C 186.894531 765.214844 187.007812 761.863281 184.8125 758.625 C 182.613281 755.390625 170.46875 749.726562 169.195312 748.570312 C 167.808594 747.414062 163.296875 740.015625 162.253906 739.4375 C 160.75 738.628906 160.289062 739.671875 161.097656 740.941406 C 161.097656 740.941406 165.957031 749.496094 169.773438 750.996094 Z M 200.773438 732.042969 C 202.277344 731.464844 199.039062 730.652344 196.378906 730.652344 C 193.71875 730.652344 186.085938 724.296875 184.695312 719.671875 C 183.308594 715.050781 185.96875 712.160156 184.234375 713.199219 C 184.234375 713.199219 182.265625 717.015625 182.730469 719.210938 C 183.191406 721.292969 188.050781 734.121094 200.773438 732.042969 Z M 149.761719 776.542969 C 152.652344 776.890625 155.660156 775.503906 157.398438 773.191406 C 157.628906 772.84375 157.398438 772.382812 157.28125 772.035156 C 157.28125 771.6875 157.050781 771.34375 156.703125 771.109375 C 156.238281 770.996094 155.777344 771.226562 155.429688 771.457031 C 154.390625 772.265625 153.8125 773.539062 152.539062 774 C 152.191406 774.117188 151.726562 774.230469 151.265625 774.230469 C 150.6875 774.347656 150.109375 774.578125 149.53125 774.808594 C 149.183594 774.925781 148.835938 775.273438 148.722656 775.617188 C 148.835938 775.964844 149.414062 776.773438 149.761719 776.542969 Z M 129.75 769.609375 C 122.460938 770.648438 115.753906 774.695312 109.042969 779.894531 C 101.757812 782.089844 94.355469 781.515625 93.890625 783.132812 C 93.429688 784.75 99.789062 785.097656 104.300781 783.824219 C 99.210938 788.21875 93.890625 792.957031 88.339844 797.464844 C 87.296875 798.273438 86.140625 799.082031 85.101562 799.777344 C 75.265625 802.320312 68.441406 795.617188 69.484375 798.96875 C 70.292969 801.511719 77.117188 802.203125 80.933594 802.4375 C 69.714844 808.910156 61.5 808.332031 61.5 808.332031 C 61.5 808.332031 53.636719 809.371094 51.4375 806.480469 C 50.746094 805.554688 49.933594 804.515625 49.242188 803.589844 C 49.472656 806.710938 50.050781 809.253906 51.089844 810.296875 C 54.097656 813.070312 62.773438 815.152344 62.773438 815.152344 L 61.964844 810.757812 C 63.699219 810.988281 66.589844 810.875 69.945312 810.179688 C 78.160156 808.5625 82.902344 804.980469 94.699219 794.460938 C 106.5 783.941406 116.679688 776.082031 122.925781 773.769531 C 129.171875 771.457031 132.875 769.722656 129.75 769.609375 Z M 104.417969 768.800781 C 106.382812 768.335938 107.65625 766.601562 109.042969 765.214844 C 112.285156 762.09375 116.792969 760.476562 121.191406 759.667969 C 122.808594 759.320312 123.273438 758.050781 121.304688 758.164062 C 119.570312 758.28125 117.605469 758.742188 115.871094 759.203125 C 112.167969 760.246094 108.8125 762.324219 106.152344 765.101562 C 105.226562 766.253906 104.300781 767.527344 104.417969 768.800781 Z M 113.207031 693.433594 C 113.671875 692.625 113.785156 691.699219 113.785156 690.773438 C 114.132812 687.539062 114.945312 684.300781 116.214844 681.414062 C 117.027344 679.5625 122.460938 671.007812 119.6875 670.085938 C 116.101562 668.699219 113.207031 677.480469 112.398438 679.679688 C 110.78125 683.609375 109.390625 687.769531 109.621094 691.929688 C 109.621094 692.972656 109.96875 694.128906 110.894531 694.472656 C 111.820312 694.820312 112.746094 694.242188 113.207031 693.433594 Z M 169.078125 800.816406 C 146.058594 802.089844 125.585938 801.859375 109.738281 791.917969 L 106.269531 795.617188 C 113.441406 803.011719 131.484375 806.019531 162.949219 806.480469 C 194.296875 807.058594 210.144531 814.457031 210.144531 814.457031 L 213.152344 811.914062 C 213.035156 811.914062 192.097656 799.546875 169.078125 800.816406 Z M 121.882812 782.785156 C 125.816406 785.789062 145.714844 785.90625 143.632812 798.042969 C 143.863281 801.046875 146.058594 800.703125 146.175781 794.460938 C 146.292969 788.21875 117.953125 777.929688 121.882812 782.785156 Z M 111.589844 719.558594 C 109.621094 720.019531 119.457031 750.765625 125.933594 760.824219 C 128.710938 765.214844 131.714844 768.566406 134.261719 770.996094 C 135.417969 770.300781 136.574219 769.722656 137.847656 769.03125 C 137.847656 769.03125 139.234375 771.917969 143.398438 775.15625 C 143.285156 774.925781 143.167969 774.808594 143.054688 774.578125 C 140.390625 770.878906 127.320312 759.089844 123.15625 749.378906 C 118.992188 739.671875 113.554688 719.09375 111.589844 719.558594 Z M 111.589844 719.558594 " fill-opacity="1" fill-rule="nonzero"/><path fill="#ffa382" d="M 398.230469 778.625 C 390.714844 780.9375 384.699219 786.484375 384.699219 786.484375 C 367.925781 793.535156 345.601562 819.773438 345.601562 819.773438 C 345.601562 819.773438 346.410156 824.050781 347.683594 827.402344 C 346.871094 829.484375 345.136719 831.21875 343.285156 832.953125 C 339.351562 832.488281 335.304688 831.566406 335.304688 831.566406 C 318.070312 831.910156 300.488281 821.855469 294.125 817.460938 C 295.28125 813.761719 296.4375 809.832031 297.710938 805.554688 C 306.386719 776.082031 326.050781 754.8125 331.601562 754.234375 C 337.15625 753.65625 347.566406 758.859375 347.566406 758.859375 C 347.566406 758.859375 355.664062 751.921875 362.949219 752.964844 C 374.289062 755.273438 387.011719 766.71875 398.230469 778.625 Z M 600.316406 832.140625 C 605.40625 826.824219 606.5625 813.878906 606.5625 813.878906 C 606.5625 813.878906 610.613281 804.746094 607.027344 798.96875 C 600.546875 788.566406 589.210938 792.726562 584.351562 789.71875 C 582.964844 788.566406 580.421875 782.667969 580.421875 782.667969 C 573.132812 782.554688 572.902344 789.835938 571.398438 793.074219 C 567.695312 801.164062 561.21875 804.054688 566.769531 812.722656 C 566.769531 812.722656 573.25 809.949219 574.984375 808.910156 C 574.984375 809.023438 581.691406 833.066406 600.316406 832.140625 Z M 210.375 692.972656 C 210.839844 693.78125 211.183594 695.050781 210.953125 695.976562 C 212.804688 695.285156 218.9375 692.855469 218.703125 691.816406 C 218.472656 690.542969 211.996094 692.742188 211.996094 692.742188 C 211.183594 688.347656 208.410156 681.757812 208.292969 684.417969 C 208.179688 685.921875 208.871094 689.386719 209.449219 692.277344 C 209.914062 692.394531 210.261719 692.625 210.375 692.972656 Z M 509.046875 793.882812 C 508.816406 796.425781 512.054688 799.316406 516.566406 801.511719 C 520.617188 803.011719 525.242188 804.402344 527.210938 804.980469 C 527.789062 806.828125 522.929688 808.214844 522.8125 810.757812 C 522.8125 811.683594 522.699219 812.722656 522.699219 813.53125 C 522.699219 813.53125 506.15625 813.648438 505.578125 817.347656 C 504.882812 821.046875 517.957031 820.003906 521.890625 820.699219 C 535.074219 822.894531 543.519531 821.96875 547.453125 824.050781 L 549.882812 822.433594 C 549.882812 822.433594 545.371094 812.609375 545.949219 805.441406 C 552.078125 805.210938 566.886719 792.496094 551.386719 789.375 C 551.039062 778.160156 560.523438 774 560.523438 774 C 560.523438 774 549.652344 770.417969 541.089844 757.238281 C 532.878906 758.625 526.976562 767.066406 526.976562 767.066406 C 525.359375 769.375 522.351562 771.226562 518.996094 772.152344 C 515.640625 773.074219 515.296875 775.964844 516.566406 778.160156 C 515.296875 779.664062 513.792969 780.011719 513.445312 781.050781 C 513.097656 782.207031 517.378906 783.941406 516.566406 785.210938 C 515.640625 786.484375 512.75 784.980469 511.363281 785.445312 C 510.4375 785.789062 510.667969 787.523438 510.785156 788.21875 C 511.015625 790.53125 509.164062 790.296875 509.046875 793.882812 Z M 509.046875 793.882812 " fill-opacity="1" fill-rule="nonzero"/><path fill="#fd725d" d="M 573.59375 802.4375 C 574.519531 804.054688 575.097656 809.023438 575.097656 809.023438 C 574.519531 809.253906 573.363281 809.949219 572.089844 810.410156 C 572.089844 810.296875 572.089844 810.066406 572.089844 809.949219 C 572.207031 809.488281 572.324219 808.910156 572.4375 808.445312 C 572.554688 807.867188 572.671875 807.40625 572.671875 806.828125 C 572.4375 806.710938 572.324219 806.597656 572.089844 806.480469 C 571.511719 806.132812 570.933594 805.671875 570.585938 804.980469 C 570.472656 804.863281 570.472656 804.632812 570.472656 804.402344 C 570.472656 804.167969 570.703125 803.9375 570.933594 804.054688 C 570.933594 804.054688 571.746094 804.402344 572.671875 804.863281 C 572.671875 804.285156 572.671875 803.707031 572.671875 803.128906 C 572.671875 802.898438 572.671875 802.667969 572.785156 802.4375 C 572.902344 802.4375 573.363281 802.320312 573.59375 802.4375 Z M 607.140625 814.226562 C 607.027344 814.109375 606.792969 813.878906 606.679688 813.996094 C 606.214844 815.035156 602.515625 820.699219 602.515625 820.699219 C 602.398438 821.277344 602.167969 821.738281 602.167969 822.316406 C 602.628906 822.546875 602.976562 822.085938 603.207031 821.738281 C 604.132812 820.238281 605.058594 818.847656 605.984375 817.347656 C 606.445312 816.539062 607.027344 815.613281 607.140625 814.6875 C 607.140625 814.457031 607.140625 814.339844 607.140625 814.226562 Z M 583.773438 788.910156 C 582.734375 788.910156 581.578125 788.910156 580.535156 788.796875 C 580.1875 788.679688 579.726562 788.679688 579.378906 788.910156 C 579.03125 789.144531 579.03125 789.71875 579.378906 789.835938 C 581 790.53125 587.246094 790.761719 587.246094 790.761719 C 586.203125 790.53125 585.277344 790.296875 584.585938 789.722656 C 584.351562 789.488281 584.121094 789.257812 583.773438 788.910156 Z M 351.035156 757.816406 C 347.914062 756.660156 349.417969 759.667969 350.691406 760.359375 C 361.910156 766.949219 390.136719 790.414062 403.667969 807.636719 C 405.171875 809.601562 407.371094 807.289062 396.84375 795.382812 C 386.316406 783.363281 363.644531 762.441406 351.035156 757.816406 Z M 335.304688 789.375 C 332.992188 786.832031 337.503906 797.925781 338.542969 801.625 C 339.007812 803.589844 340.394531 809.371094 341.78125 814.6875 C 340.742188 821.738281 336.578125 829.597656 332.527344 833.414062 C 329.289062 836.652344 325.820312 840.695312 325.933594 841.738281 C 326.050781 842.777344 332.414062 836.1875 334.03125 834.453125 C 335.421875 832.835938 340.855469 827.402344 343.285156 820.351562 C 343.980469 822.78125 344.558594 824.628906 345.023438 825.089844 C 346.292969 826.476562 346.757812 823.589844 345.714844 819.660156 C 341.898438 806.710938 337.503906 792.03125 335.304688 789.375 Z M 161.5625 868.4375 C 159.710938 867.628906 152.539062 860.117188 150.226562 860 C 148.027344 859.882812 144.902344 861.386719 143.632812 862.773438 C 140.855469 865.894531 148.027344 862.195312 150.226562 862.773438 C 152.421875 863.351562 158.4375 868.898438 160.289062 869.824219 C 162.023438 870.632812 163.410156 869.246094 161.5625 868.4375 Z M 128.59375 878.148438 C 120.496094 875.605469 117.953125 874.679688 117.257812 876.644531 C 117.257812 876.992188 117.257812 877.222656 117.257812 877.339844 C 118.875 879.535156 130.90625 876.992188 134.261719 893.519531 C 134.261719 893.519531 136.804688 893.289062 138.886719 892.941406 C 139.582031 892.828125 140.390625 892.480469 141.203125 892.019531 C 139.121094 887.742188 134.722656 879.996094 128.59375 878.148438 Z M 63.46875 847.976562 C 65.085938 854.566406 67.402344 858.496094 69.714844 860.925781 C 73.183594 853.179688 70.988281 844.625 69.253906 840.234375 C 65.203125 842.777344 63.351562 846.011719 63.46875 847.976562 Z M 103.722656 849.019531 C 101.871094 849.367188 103.03125 850.058594 105.226562 851.675781 C 107.425781 853.296875 108.699219 858.496094 109.738281 861.386719 C 110.894531 864.390625 112.167969 867.28125 112.050781 863.929688 C 109.507812 851.5625 106.269531 849.25 103.722656 849.019531 Z M 516.566406 801.28125 C 518.304688 802.320312 520.269531 803.128906 522.234375 803.707031 C 522.8125 805.554688 522.8125 808.214844 522.8125 810.757812 C 536.117188 813.417969 542.363281 807.867188 541.207031 806.480469 C 539.933594 804.980469 523.160156 803.824219 516.566406 801.28125 Z M 550.691406 801.625 C 550.808594 801.511719 550.691406 801.28125 550.574219 801.164062 C 550.460938 801.046875 550.34375 801.164062 550.113281 801.164062 C 549.417969 801.511719 548.839844 801.972656 548.148438 802.203125 C 547.453125 802.4375 546.527344 802.550781 545.949219 802.089844 C 545.832031 802.089844 545.832031 801.972656 545.71875 801.972656 C 545.601562 801.859375 545.371094 801.972656 545.253906 802.089844 C 545.253906 802.203125 545.140625 802.4375 545.253906 802.550781 C 545.71875 804.863281 549.304688 802.898438 550.691406 801.625 C 551.039062 801.625 550.691406 801.742188 550.691406 801.625 Z M 548.957031 794.230469 C 548.609375 794.691406 548.261719 795.269531 548.492188 795.847656 C 548.726562 796.308594 549.1875 796.425781 549.652344 796.539062 C 550.113281 796.65625 550.574219 797.117188 550.460938 797.582031 C 550.460938 797.8125 550.230469 797.925781 550.113281 798.160156 C 549.765625 798.503906 549.304688 798.96875 548.957031 799.316406 C 548.839844 799.429688 549.074219 799.777344 549.304688 799.777344 C 549.535156 799.777344 549.765625 799.660156 549.882812 799.546875 C 550.460938 799.082031 551.039062 798.621094 551.5 798.042969 C 551.734375 797.695312 551.964844 797.464844 552.078125 797.003906 C 552.195312 796.539062 552.078125 796.195312 551.847656 795.960938 C 551.617188 795.730469 551.15625 795.617188 550.808594 795.617188 C 550.460938 795.5 550.113281 795.269531 550.113281 794.921875 C 550.113281 794.574219 550.460938 794.34375 550.691406 794.113281 C 551.269531 793.765625 551.847656 793.535156 552.425781 793.304688 C 552.773438 793.1875 553.121094 793.074219 553.46875 792.839844 C 553.816406 792.609375 554.160156 792.148438 554.046875 791.800781 C 552.195312 791.917969 550.230469 792.726562 548.957031 794.230469 Z M 548.957031 794.230469 " fill-opacity="1" fill-rule="nonzero"/><path fill="#171717" d="M 347.566406 758.859375 C 347.566406 758.859375 335.652344 786.601562 338.429688 798.042969 C 338.429688 798.042969 319.339844 788.101562 313.09375 772.84375 C 320.730469 761.515625 328.480469 754.582031 331.601562 754.234375 C 337.269531 753.539062 347.566406 758.859375 347.566406 758.859375 Z M 409.566406 812.722656 C 414.078125 816.074219 423.796875 827.171875 425.878906 827.402344 C 427.960938 827.75 411.535156 808.910156 411.535156 808.910156 C 411.535156 808.910156 410.839844 810.296875 409.566406 812.722656 Z M 410.378906 866.355469 C 407.253906 864.96875 400.3125 860.460938 395.457031 857.574219 C 390.597656 854.796875 384.464844 857.109375 388.285156 858.148438 C 396.035156 858.496094 405.519531 871.789062 416.738281 870.289062 C 419.746094 870.171875 413.5 867.746094 410.378906 866.355469 Z M 162.140625 626.160156 C 161.445312 627.433594 165.148438 625.121094 166.765625 624.425781 C 168.386719 623.734375 174.980469 622.578125 172.433594 621.769531 C 172.433594 621.769531 166.070312 622 162.140625 626.160156 Z M 167.574219 629.742188 C 166.882812 631.128906 166.996094 632.519531 167.921875 633.09375 C 168.734375 633.558594 170.121094 632.980469 170.929688 631.59375 C 171.394531 630.785156 171.507812 630.089844 171.394531 629.398438 C 173.242188 629.628906 173.011719 628.472656 170.238281 628.007812 C 168.269531 627.664062 164.570312 627.664062 164.105469 628.355469 C 163.527344 629.164062 165.839844 628.585938 168.617188 628.820312 C 168.15625 628.933594 167.808594 629.28125 167.574219 629.742188 Z M 212.226562 676.210938 C 212.109375 675.632812 211.878906 674.9375 211.648438 674.363281 C 210.605469 672.050781 205.285156 673.320312 205.515625 674.363281 C 205.75 675.402344 206.210938 680.71875 206.210938 680.71875 L 212.457031 679.792969 C 212.457031 679.792969 212.457031 679.101562 212.457031 678.058594 C 224.949219 678.058594 230.15625 694.589844 234.089844 707.652344 C 238.136719 721.175781 245.308594 728.109375 250.976562 739.09375 C 256.644531 750.074219 252.710938 765.101562 245.425781 764.867188 C 238.136719 764.636719 230.039062 756.546875 226.109375 740.824219 C 222.175781 725.105469 222.289062 704.300781 219.398438 701.871094 L 218.703125 703.375 C 221.019531 707.652344 218.820312 729.152344 226.800781 749.957031 C 234.78125 770.878906 253.984375 772.035156 255.257812 752.847656 C 256.53125 733.660156 243.691406 732.273438 234.4375 701.523438 C 226.6875 675.863281 215.582031 675.402344 212.226562 676.210938 Z M 531.257812 772.613281 C 531.027344 772.265625 530.796875 771.917969 530.5625 771.6875 C 529.753906 770.996094 528.480469 771.109375 527.558594 770.417969 C 527.558594 770.648438 527.441406 770.878906 527.441406 771.109375 C 527.558594 771.457031 527.789062 771.6875 528.136719 771.804688 C 528.480469 771.917969 528.714844 772.035156 529.058594 772.152344 C 530.449219 772.613281 531.144531 774 531.605469 775.273438 C 531.722656 775.503906 531.835938 775.734375 532.066406 775.964844 C 532.300781 776.195312 532.644531 776.195312 532.878906 776.195312 C 533.109375 776.082031 533.226562 775.964844 533.109375 775.734375 C 532.53125 774.578125 531.835938 773.539062 531.257812 772.613281 Z M 517.957031 778.855469 C 517.957031 778.855469 518.070312 778.972656 517.957031 778.855469 C 518.070312 778.855469 518.1875 778.738281 518.1875 778.738281 C 518.1875 778.507812 518.417969 777.003906 517.957031 777.238281 C 517.609375 777.46875 517.609375 778.625 517.957031 778.855469 Z M 509.742188 777.003906 C 509.742188 777.003906 509.859375 777.003906 509.742188 777.003906 M 531.257812 768.105469 C 532.183594 768.453125 532.992188 769.03125 533.570312 769.722656 C 534.613281 770.996094 534.84375 772.730469 535.652344 774.117188 C 535.769531 774.230469 535.886719 774.347656 536 774.230469 C 536 774.230469 536 774.117188 536 774 C 535.886719 772.960938 535.539062 771.917969 535.308594 770.878906 C 535.191406 770.417969 535.074219 769.953125 534.730469 769.492188 C 534.496094 769.144531 534.148438 768.800781 533.917969 768.453125 C 533.457031 767.988281 532.992188 767.527344 532.53125 767.179688 C 532.066406 766.832031 531.140625 766.371094 530.449219 766.601562 C 529.640625 767.179688 530.910156 767.875 531.257812 768.105469 Z M 531.257812 768.105469 " fill-opacity="1" fill-rule="nonzero"/></svg>