<svg xmlns="http://www.w3.org/2000/svg" xmlns:xlink="http://www.w3.org/1999/xlink" width="1920" zoomAndPan="magnify" viewBox="0 0 1440 809.999993" height="1080" preserveAspectRatio="xMidYMid meet" version="1.0"><defs><clipPath id="f8c184bb83"><path d="M 471 277 L 1236.847656 277 L 1236.847656 655 L 471 655 Z M 471 277 " clip-rule="nonzero"/></clipPath></defs><path fill="#fc4138" d="M 369.804688 273.386719 C 386.324219 310.566406 391.488281 367.164062 402.015625 383.277344 C 402.015625 383.277344 428.445312 351.671875 431.335938 345.890625 C 434.019531 340.105469 439.390625 336.800781 445.378906 336.386719 C 445.378906 336.386719 450.746094 321.308594 456.320312 323.785156 C 462.722656 327.09375 484.816406 348.78125 483.574219 350.847656 C 482.335938 352.914062 478.621094 362.621094 478.621094 362.621094 C 478.621094 362.621094 484.816406 377.90625 483.164062 384.105469 C 479.035156 400.007812 458.796875 413.230469 452.191406 429.960938 C 458.796875 438.636719 477.382812 470.449219 477.382812 470.449219 C 477.382812 470.449219 430.304688 479.742188 413.785156 477.265625 C 397.269531 474.785156 385.085938 474.164062 379.511719 470.652344 C 379.511719 470.652344 351.429688 470.242188 337.800781 485.941406 C 323.96875 501.84375 246.332031 544.398438 246.332031 544.398438 C 246.332031 544.398438 237.660156 543.984375 234.976562 541.09375 C 232.292969 538.199219 228.78125 518.992188 228.78125 518.992188 C 228.78125 518.992188 205.449219 508.042969 204.417969 498.332031 C 203.796875 489.039062 205.242188 476.4375 207.71875 466.730469 C 211.644531 451.238281 213.5 383.484375 220.730469 337.625 C 227.957031 291.769531 267.394531 251.695312 267.394531 251.695312 C 267.394531 251.695312 263.882812 240.128906 268.632812 233.519531 C 273.378906 227.113281 287.628906 225.875 291.34375 221.539062 C 300.222656 208.523438 312.613281 210.796875 320.457031 216.582031 C 321.078125 215.546875 323.347656 214.308594 324.175781 213.273438 C 326.03125 210.796875 328.304688 207.90625 331.402344 207.699219 C 335.117188 207.285156 338.007812 210.589844 340.484375 213.480469 C 347.714844 221.746094 356.179688 228.765625 364.230469 236.203125 C 365.675781 237.648438 367.328125 239.09375 368.15625 240.75 C 368.980469 242.195312 369.1875 243.847656 369.394531 245.292969 C 370.011719 250.25 370.011719 255.414062 369.804688 260.371094 C 369.804688 264.089844 369.601562 267.808594 369.601562 271.527344 " fill-opacity="1" fill-rule="nonzero"/><path fill="#171717" d="M 755.09375 629.503906 C 749.519531 624.75 767.691406 597.898438 773.265625 592.734375 C 778.839844 587.570312 797.011719 614.011719 789.164062 625.578125 C 781.320312 637.144531 755.09375 629.503906 755.09375 629.503906 Z M 242.203125 538.820312 C 252.734375 560.511719 292.582031 573.109375 292.582031 573.109375 C 292.582031 573.109375 457.558594 548.527344 475.316406 548.734375 C 493.074219 549.148438 523.632812 499.988281 523.632812 499.988281 C 493.898438 463.632812 458.59375 467.761719 415.644531 463.011719 C 372.695312 458.261719 362.371094 436.363281 362.371094 436.363281 C 299.398438 469.207031 287.007812 529.320312 242.203125 538.820312 Z M 242.203125 538.820312 " fill-opacity="1" fill-rule="nonzero"/><path fill="#ffa382" d="M 386.945312 587.570312 C 393.136719 585.296875 400.777344 606.574219 402.015625 607.605469 C 404.703125 611.945312 423.078125 624.75 432.574219 627.644531 C 433.195312 627.851562 448.886719 658.007812 428.652344 659.453125 C 413.375 660.695312 396.027344 660.695312 381.574219 658.214844 C 377.03125 658.628906 372.695312 653.464844 372.695312 653.464844 C 372.695312 653.464844 370.632812 655.117188 368.15625 656.5625 C 366.914062 657.386719 361.753906 651.8125 360.308594 652.019531 C 356.589844 652.636719 355.765625 659.039062 355.765625 659.039062 C 355.765625 659.039062 324.792969 651.8125 308.894531 663.585938 C 307.035156 663.171875 305.179688 662.757812 303.320312 661.933594 C 281.640625 654.082031 260.992188 612.976562 256.449219 609.671875 C 253.351562 608.226562 246.953125 607.605469 240.757812 600.789062 C 236.628906 596.246094 232.496094 568.152344 239.929688 563.816406 C 244.0625 561.335938 249.636719 559.269531 256.65625 558.238281 C 263.46875 553.691406 268.011719 546.464844 274.824219 556.585938 C 274.824219 556.585938 315.089844 573.523438 321.695312 572.902344 C 328.304688 572.078125 322.523438 577.859375 324.792969 582.40625 C 327.066406 586.949219 326.652344 590.460938 320.664062 596.453125 C 316.949219 602.441406 325.828125 630.742188 325.828125 630.742188 C 325.828125 630.742188 323.761719 610.5 339.246094 594.179688 C 339.246094 594.179688 369.394531 590.046875 374.347656 589.015625 C 379.304688 587.984375 386.945312 587.570312 386.945312 587.570312 Z M 386.945312 587.570312 " fill-opacity="1" fill-rule="nonzero"/><path fill="#6302a5" d="M 409.039062 170.308594 C 407.386719 172.582031 405.320312 174.648438 404.082031 177.125 C 402.222656 181.257812 403.050781 186.007812 403.050781 190.554688 C 403.050781 199.640625 399.746094 208.730469 393.550781 215.546875 C 391.28125 218.027344 388.800781 220.089844 385.707031 221.539062 C 382.8125 222.777344 379.511719 223.191406 376.207031 223.601562 C 366.710938 224.84375 357.417969 226.082031 347.917969 225.253906 C 342.757812 224.84375 337.800781 223.808594 332.640625 222.570312 C 329.542969 221.949219 325.621094 220.917969 323.554688 218.644531 L 320.042969 216.375 C 320.042969 216.375 321.285156 202.945312 314.058594 190.140625 C 307.863281 179.191406 303.941406 133.953125 333.671875 121.355469 C 365.46875 89.128906 416.675781 123.214844 420.1875 123.832031 C 423.695312 124.660156 427.828125 121.355469 427.828125 121.355469 C 427.828125 121.355469 428.238281 138.292969 421.011719 145.109375 C 414.40625 151.71875 414.613281 162.667969 409.039062 170.308594 Z M 892.402344 528.90625 C 892.402344 528.90625 875.886719 508.042969 864.324219 496.269531 C 852.761719 484.492188 793.292969 561.128906 790.402344 566.707031 C 787.511719 572.285156 780.492188 607.8125 780.492188 607.8125 C 780.492188 607.8125 762.117188 618.96875 755.300781 629.707031 C 755.300781 629.707031 791.4375 657.59375 861.433594 657.59375 C 861.433594 657.59375 897.359375 579.101562 896.945312 559.890625 C 896.328125 540.472656 892.402344 528.90625 892.402344 528.90625 Z M 892.402344 528.90625 " fill-opacity="1" fill-rule="nonzero"/><path fill="#fd725d" d="M 421.21875 145.109375 C 422.871094 152.132812 431.335938 172.996094 431.542969 176.09375 C 431.75 179.191406 426.792969 184.769531 426.792969 188.074219 C 426.792969 191.378906 434.433594 205.425781 433.609375 208.109375 C 432.78125 210.796875 427 213.273438 426.382812 213.894531 C 425.761719 214.515625 428.238281 218.644531 427.621094 220.710938 C 427 222.777344 416.46875 221.949219 423.285156 226.496094 C 423.695312 226.703125 424.109375 227.527344 424.523438 228.972656 C 424.730469 231.039062 420.804688 232.074219 419.980469 237.03125 C 418.949219 241.988281 419.980469 249.011719 409.039062 249.011719 C 399.539062 249.21875 383.640625 239.507812 385.707031 251.902344 C 384.464844 252.730469 383.226562 253.96875 381.988281 255.207031 C 373.523438 264.089844 370.21875 273.179688 370.21875 273.179688 C 370.21875 273.179688 358.242188 245.5 348.746094 235.585938 C 339.246094 225.667969 324.175781 218.4375 324.175781 218.4375 C 324.175781 218.4375 329.128906 216.582031 331.195312 213.6875 L 329.75 218.027344 C 329.75 218.027344 334.292969 218.851562 337.800781 215.339844 L 335.53125 219.886719 C 335.53125 219.886719 342.550781 221.125 347.507812 215.339844 L 345.648438 219.265625 C 345.648438 219.265625 353.699219 216.785156 357.625 206.25 C 367.328125 210.589844 366.503906 193.238281 366.503906 193.238281 C 365.058594 183.324219 371.25 179.605469 377.652344 179.398438 C 384.054688 179.191406 389.214844 188.28125 389.214844 188.28125 C 389.214844 188.28125 396.234375 185.390625 397.472656 181.671875 C 398.714844 177.953125 397.269531 155.230469 401.191406 148.828125 C 400.777344 149.035156 413.785156 152.75 421.21875 145.109375 Z M 456.113281 323.992188 C 456.113281 323.992188 469.742188 344.238281 479.859375 348.574219 C 479.859375 348.574219 497.617188 336.386719 503.605469 320.480469 L 490.183594 297.554688 C 490.183594 297.554688 470.566406 295.28125 466.644531 297.554688 C 462.929688 299.824219 457.972656 322.339844 456.113281 323.992188 Z M 523.632812 500.191406 C 523.632812 500.191406 481.71875 517.542969 471.394531 533.863281 C 418.742188 516.925781 351.222656 547.496094 324.585938 553.488281 C 297.953125 559.269531 274.621094 556.792969 274.621094 556.792969 C 279.78125 575.175781 287.214844 578.066406 301.460938 579.71875 C 305.796875 574.351562 316.328125 576.621094 324.792969 582.613281 C 324.792969 582.613281 336.769531 577.035156 343.996094 576.003906 L 339.246094 594.386719 C 347.917969 597.691406 348.746094 601.203125 356.589844 605.953125 C 364.4375 610.703125 372.902344 604.300781 372.902344 604.300781 C 369.804688 596.660156 376.414062 592.320312 387.152344 587.777344 L 384.671875 573.9375 C 384.671875 573.9375 466.4375 579.101562 503.191406 556.792969 C 535.816406 536.753906 523.632812 500.191406 523.632812 500.191406 Z M 523.632812 500.191406 " fill-opacity="1" fill-rule="nonzero"/><path fill="#fc4138" d="M 491.421875 317.589844 C 492.660156 326.472656 484.609375 339.28125 481.304688 336.59375 C 478 333.910156 482.542969 328.949219 482.957031 323.992188 C 482.957031 323.992188 490.183594 308.914062 491.421875 317.589844 Z M 491.421875 317.589844 " fill-opacity="1" fill-rule="nonzero"/><g clip-path="url(#f8c184bb83)"><path fill="#171717" d="M 710.496094 572.902344 C 710.289062 582.199219 717.105469 588.601562 719.582031 594.59375 C 720.40625 596.660156 706.984375 618.761719 696.25 619.792969 C 685.511719 620.828125 673.125 620.828125 673.125 620.828125 C 673.125 620.828125 673.742188 623.511719 674.15625 626.609375 C 674.777344 630.121094 657.636719 653.050781 649.171875 654.082031 C 640.707031 655.117188 632.859375 650.367188 620.472656 649.332031 C 608.289062 648.09375 595.695312 654.289062 577.730469 654.703125 C 555.429688 654.496094 542.421875 649.332031 531.066406 637.972656 C 530.445312 636.320312 530.242188 634.667969 530.652344 633.21875 C 537.671875 608.019531 570.089844 615.867188 574.632812 615.664062 C 579.175781 615.25 596.519531 600.789062 598.378906 597.898438 C 607.464844 576.414062 621.089844 583.851562 621.089844 583.851562 C 621.089844 583.851562 651.855469 570.839844 666.101562 560.304688 C 680.351562 549.769531 710.703125 560.304688 710.496094 572.902344 Z M 1152.566406 460.945312 C 1141.417969 403.726562 1083.601562 409.097656 1081.953125 415.5 C 1079.0625 427.277344 1075.550781 437.191406 1074.105469 449.171875 C 1072.660156 461.152344 1074.105469 473.753906 1080.09375 484.289062 C 1082.777344 489.039062 1086.082031 493.375 1087.9375 498.539062 C 1090.828125 506.804688 1089.179688 516.097656 1087.320312 524.566406 C 1086.492188 527.871094 1085.875 531.382812 1087.734375 534.277344 C 1088.972656 536.136719 1091.035156 537.167969 1093.101562 538.199219 C 1100.949219 542.125 1109 546.050781 1117.671875 548.324219 C 1126.136719 550.59375 1135.429688 551.007812 1143.894531 547.910156 C 1145.960938 547.082031 1148.023438 546.257812 1149.46875 544.605469 C 1152.359375 541.503906 1152.980469 536.960938 1153.394531 532.625 C 1154.21875 525.808594 1156.078125 519.195312 1158.347656 512.792969 C 1160.207031 507.835938 1162.476562 502.878906 1162.890625 497.714844 C 1163.511719 488.832031 1151.328125 470.035156 1152.566406 460.945312 Z M 1211.414062 541.09375 C 1208.730469 534.277344 1207.492188 526.839844 1203.566406 520.644531 C 1198.40625 512.171875 1188.496094 506.597656 1178.378906 506.597656 L 1164.957031 535.308594 C 1165.988281 545.84375 1171.148438 555.550781 1178.582031 563.195312 C 1185.808594 570.839844 1195.101562 576.414062 1205.011719 580.132812 C 1202.535156 576.828125 1200.675781 572.695312 1200.265625 568.359375 C 1202.535156 571.871094 1207.902344 573.730469 1212.03125 574.761719 C 1216.371094 575.796875 1220.910156 576.414062 1225.246094 575.796875 C 1229.582031 575.175781 1234.125 573.316406 1236.398438 569.597656 C 1225.042969 563.402344 1216.164062 553.074219 1211.414062 541.09375 Z M 471.394531 296.726562 C 471.394531 296.726562 489.976562 297.140625 491.835938 300.445312 C 493.898438 303.957031 494.726562 310.566406 482.75 309.121094 C 482.75 309.121094 484.195312 320.277344 482.75 323.785156 C 482.75 323.785156 518.265625 326.679688 516.40625 300.238281 C 514.546875 269.046875 472.21875 271.320312 471.394531 296.726562 Z M 471.394531 296.726562 " fill-opacity="1" fill-rule="nonzero"/></g><path fill="#fc4138" d="M 864.117188 496.269531 C 852.964844 500.191406 847.183594 514.652344 847.183594 514.652344 L 843.261719 511.96875 C 806.097656 541.710938 809.191406 595.625 809.191406 595.625 C 795.566406 595.210938 780.285156 607.605469 780.285156 607.605469 C 750.964844 585.296875 742.707031 551.835938 736.71875 540.679688 C 734.449219 534.484375 733.003906 527.046875 733.003906 527.046875 C 733.003906 527.046875 736.511719 462.597656 766.453125 449.996094 C 766.453125 449.996094 813.527344 457.847656 826.949219 453.714844 C 842.023438 469.621094 855.238281 485.941406 864.117188 496.269531 Z M 1148.851562 505.769531 C 1148.851562 505.769531 1121.59375 515.480469 1097.851562 532.003906 C 1097.851562 532.003906 1069.355469 529.523438 1064.8125 525.601562 C 1060.269531 521.675781 1049.535156 508.457031 1049.535156 508.457031 C 1049.535156 508.457031 998.945312 508.867188 984.90625 504.738281 C 970.867188 500.605469 956.617188 511.347656 952.695312 524.566406 C 937.003906 524.359375 906.238281 512.378906 892.402344 528.90625 C 875.265625 555.550781 871.550781 601.824219 869.484375 609.257812 C 867.421875 616.695312 858.746094 641.894531 861.433594 657.59375 C 861.433594 657.59375 936.796875 657.59375 971.898438 657.59375 C 1007 657.59375 1071.835938 631.363281 1090.832031 612.976562 C 1099.914062 608.226562 1158.140625 585.503906 1188.082031 549.355469 Z M 641.324219 523.121094 C 629.351562 562.367188 621.089844 583.851562 621.089844 583.851562 C 628.523438 587.363281 619.234375 602.648438 619.234375 602.648438 C 626.664062 603.476562 627.078125 612.5625 636.988281 612.5625 C 646.902344 612.5625 653.300781 596.453125 667.546875 603.476562 C 676.425781 582.199219 691.914062 571.871094 691.914062 571.871094 C 691.914062 571.871094 701 568.359375 707.8125 571.457031 C 708.84375 571.871094 709.671875 572.492188 710.496094 573.316406 C 713.386719 563.402344 722.058594 557.410156 729.078125 551.214844 C 722.058594 550.386719 706.78125 523.742188 706.78125 523.742188 C 675.808594 523.949219 652.683594 530.765625 641.324219 523.121094 Z M 375.175781 217.820312 C 377.859375 220.089844 385.085938 221.332031 387.152344 217.820312 C 389.214844 214.308594 388.800781 210.589844 387.152344 213.273438 C 385.085938 218.4375 379.304688 217.820312 377.03125 214.101562 C 374.761719 210.589844 366.710938 203.152344 365.882812 193.445312 C 365.882812 193.445312 360.722656 195.71875 357.003906 206.046875 C 361.960938 212.242188 372.695312 215.753906 375.175781 217.820312 Z M 373.9375 189.3125 C 374.761719 188.488281 375.792969 187.660156 376.828125 186.835938 C 377.445312 186.421875 378.273438 186.007812 379.097656 186.007812 C 380.128906 186.007812 380.75 186.835938 381.367188 187.453125 C 382.402344 188.695312 383.640625 190.140625 383.433594 191.792969 C 383.226562 193.652344 381.574219 195.097656 379.921875 195.921875 C 379.097656 196.335938 378.273438 196.75 378.066406 197.371094 C 377.859375 197.988281 378.066406 198.609375 378.476562 199.230469 C 379.921875 201.707031 381.164062 204.597656 383.019531 206.25 C 388.183594 208.730469 381.988281 200.054688 382.402344 198.402344 C 382.8125 196.957031 384.464844 196.542969 385.085938 193.238281 C 385.5 189.933594 383.640625 182.289062 378.066406 184.355469 C 372.492188 186.421875 370.839844 190.964844 373.9375 189.3125 Z M 377.03125 233.519531 C 373.316406 235.171875 379.304688 245.085938 385.292969 252.109375 C 391.898438 247.359375 398.09375 248.597656 406.351562 248.804688 C 396.855469 247.769531 381.988281 231.453125 377.03125 233.519531 Z M 434.226562 628.054688 C 433.816406 628.054688 433.195312 627.851562 432.78125 627.644531 C 432.574219 627.851562 432.371094 627.851562 432.371094 628.054688 C 432.371094 628.054688 425.96875 639.210938 428.445312 656.355469 C 428.652344 657.59375 428.652344 658.628906 428.652344 659.660156 C 448.679688 658.007812 465.199219 654.496094 465.820312 651.398438 C 465.613281 622.480469 443.105469 629.503906 434.226562 628.054688 Z M 325.621094 630.742188 C 325.621094 630.742188 301.253906 651.605469 309.101562 663.585938 C 330.164062 668.128906 355.972656 659.039062 355.972656 659.039062 C 352.253906 641.277344 345.027344 634.871094 325.621094 630.742188 Z M 343.789062 575.589844 L 340.898438 586.535156 C 353.496094 582.40625 375.792969 579.71875 385.292969 578.6875 L 384.464844 573.523438 C 384.464844 573.730469 362.785156 570.839844 343.789062 575.589844 Z M 343.789062 575.589844 " fill-opacity="1" fill-rule="nonzero"/><path fill="#6302a5" d="M 568.027344 637.972656 C 566.992188 637.144531 567.199219 635.699219 567.40625 634.460938 C 568.027344 630.742188 569.058594 627.230469 570.503906 623.925781 C 571.125 622.273438 571.949219 620.621094 572.980469 619.175781 C 574.015625 617.726562 575.253906 617.109375 575.046875 619.378906 C 574.632812 625.164062 570.089844 630.328125 570.089844 636.113281 C 570.089844 636.9375 570.089844 637.972656 569.472656 638.179688 C 568.851562 638.382812 568.4375 638.179688 568.027344 637.972656 Z M 561.003906 627.4375 C 562.246094 625.992188 565.960938 622.480469 565.960938 620.414062 C 565.960938 617.523438 562.039062 621.859375 561.210938 622.6875 C 560.179688 623.925781 559.355469 625.371094 559.148438 626.816406 C 559.148438 627.230469 559.148438 627.644531 559.558594 627.851562 C 559.972656 628.46875 560.59375 627.851562 561.003906 627.4375 Z M 591.976562 612.152344 C 595.695312 609.464844 599.617188 606.988281 603.746094 604.714844 C 605.191406 603.886719 606.636719 603.0625 608.289062 602.648438 C 609.941406 602.234375 611.800781 602.441406 613.039062 603.269531 C 614.070312 603.886719 614.898438 605.128906 615.722656 606.160156 C 616.546875 607.191406 617.789062 609.257812 619.027344 608.019531 C 619.851562 607.191406 619.4375 606.160156 619.027344 605.746094 C 617.582031 604.507812 616.136719 603.0625 614.691406 601.824219 C 614.070312 601.203125 613.453125 600.582031 612.625 600.375 C 611.179688 599.757812 609.320312 599.964844 607.875 600.375 C 597.140625 603.269531 589.5 612.976562 578.96875 617.109375 C 578.144531 617.523438 577.9375 618.761719 578.351562 619.585938 C 583.304688 618.347656 587.640625 615.042969 591.976562 612.152344 Z M 655.160156 647.886719 C 655.160156 647.886719 649.378906 650.160156 641.53125 647.886719 C 621.503906 635.699219 604.160156 649.746094 571.125 649.539062 C 547.378906 649.332031 535.816406 641.894531 531.273438 637.765625 C 534.78125 647.058594 553.984375 657.800781 576.285156 658.007812 C 594.457031 657.59375 608.082031 653.875 620.265625 655.117188 C 632.445312 656.355469 640.085938 659.867188 648.550781 659.039062 C 657.019531 658.007812 673.535156 646.648438 675.1875 636.527344 C 675.394531 634.667969 674.773438 630.328125 674.15625 626.609375 C 658.257812 622.890625 655.160156 647.886719 655.160156 647.886719 Z M 696.867188 616.074219 C 694.390625 617.316406 688.816406 618.140625 683.652344 618.761719 C 679.113281 612.152344 673.742188 602.234375 670.234375 597.070312 C 669.199219 598.929688 668.375 600.996094 667.34375 603.0625 C 667.136719 603.683594 671.679688 617.109375 672.917969 620.828125 C 672.917969 620.828125 673.328125 621.03125 673.949219 621.03125 C 676.839844 621.859375 684.894531 623.71875 693.566406 622.890625 C 704.300781 621.859375 718.550781 609.050781 720.199219 600.582031 C 720.613281 598.519531 720.199219 596.660156 719.375 594.800781 C 698.3125 589.429688 700.378906 615.042969 696.867188 616.074219 Z M 1084.636719 526.632812 C 1080.507812 536.136719 1060.890625 549.148438 1068.53125 551.007812 C 1076.171875 552.867188 1087.527344 538.613281 1093.515625 534.6875 C 1096.199219 530.144531 1088.765625 517.335938 1084.636719 526.632812 Z M 952.695312 524.566406 C 949.1875 524.566406 945.054688 523.949219 940.511719 523.121094 C 936.796875 553.488281 957.03125 563.402344 956 558.652344 C 954.96875 553.691406 950.632812 537.582031 952.695312 524.566406 Z M 984.285156 582.613281 C 975.820312 580.546875 968.183594 575.175781 969.628906 579.515625 C 972.105469 587.15625 996.675781 590.046875 1001.21875 586.332031 C 1007.207031 579.71875 992.753906 584.882812 984.285156 582.613281 Z M 1080.09375 581.992188 C 1079.472656 579.515625 1079.472656 576.828125 1079.679688 574.347656 C 1079.886719 572.695312 1079.886719 570.425781 1078.234375 569.804688 C 1073.898438 567.945312 1074.519531 576.003906 1074.519531 577.859375 C 1074.726562 582.820312 1075.550781 587.570312 1078.027344 591.90625 C 1079.265625 594.179688 1081.125 596.453125 1083.601562 597.277344 C 1084.015625 597.484375 1084.429688 597.484375 1084.84375 597.484375 C 1085.460938 597.277344 1085.875 596.453125 1085.875 595.625 C 1085.875 594.800781 1085.460938 594.179688 1085.046875 593.558594 C 1082.984375 590.046875 1081.125 586.125 1080.09375 581.992188 Z M 321.285156 245.5 C 330.574219 249.628906 361.339844 274.832031 364.644531 277.515625 C 368.15625 280.203125 373.109375 281.855469 369.601562 277.722656 C 366.089844 273.59375 327.476562 239.714844 318.394531 238.476562 C 309.308594 237.441406 280.8125 242.195312 266.773438 251.488281 C 262.4375 259.753906 306.003906 238.476562 321.285156 245.5 Z M 324.175781 227.320312 C 329.128906 229.386719 328.511719 223.808594 318.804688 222.777344 C 309.101562 221.746094 298.984375 219.472656 296.710938 222.363281 C 292.996094 226.289062 314.675781 224.015625 324.175781 227.320312 Z M 419.359375 404.347656 C 426.175781 407.03125 443.3125 420.253906 446.617188 425.003906 C 449.921875 429.753906 450.125 423.765625 446.203125 417.980469 C 442.28125 412.195312 420.601562 402.074219 418.328125 400.007812 C 415.851562 397.945312 407.796875 384.722656 405.941406 383.691406 C 403.253906 382.246094 402.429688 384.105469 403.875 386.375 C 403.875 386.375 412.546875 401.660156 419.359375 404.347656 Z M 474.699219 370.46875 C 477.382812 369.4375 471.601562 367.992188 466.851562 367.992188 C 462.101562 367.992188 448.476562 356.628906 445.996094 348.367188 C 443.519531 340.105469 448.269531 334.941406 445.171875 336.800781 C 445.171875 336.800781 441.660156 343.617188 442.488281 347.542969 C 443.3125 351.261719 451.984375 374.1875 474.699219 370.46875 Z M 383.640625 449.996094 C 388.800781 450.617188 394.171875 448.140625 397.269531 444.007812 C 397.679688 443.386719 397.269531 442.5625 397.0625 441.941406 C 397.0625 441.320312 396.648438 440.703125 396.027344 440.289062 C 395.203125 440.082031 394.378906 440.496094 393.757812 440.910156 C 391.898438 442.355469 390.867188 444.628906 388.597656 445.453125 C 387.976562 445.660156 387.152344 445.867188 386.324219 445.867188 C 385.292969 446.074219 384.261719 446.484375 383.226562 446.898438 C 382.609375 447.105469 381.988281 447.726562 381.78125 448.34375 C 381.988281 448.964844 383.019531 450.410156 383.640625 449.996094 Z M 347.917969 437.605469 C 334.910156 439.464844 322.9375 446.691406 310.960938 455.988281 C 297.953125 459.914062 284.738281 458.878906 283.910156 461.773438 C 283.085938 464.664062 294.441406 465.285156 302.496094 463.011719 C 293.410156 470.859375 283.910156 479.328125 274 487.386719 C 272.140625 488.832031 270.078125 490.277344 268.21875 491.515625 C 250.667969 496.0625 238.484375 484.082031 240.34375 490.070312 C 241.789062 494.617188 253.972656 495.855469 260.785156 496.269531 C 240.757812 507.835938 226.097656 506.804688 226.097656 506.804688 C 226.097656 506.804688 212.054688 508.664062 208.132812 503.496094 C 206.894531 501.84375 205.449219 499.988281 204.210938 498.332031 C 204.625 503.910156 205.65625 508.457031 207.515625 510.316406 C 212.882812 515.273438 228.367188 518.992188 228.367188 518.992188 L 226.921875 511.140625 C 230.019531 511.554688 235.183594 511.347656 241.171875 510.109375 C 255.828125 507.214844 264.296875 500.8125 285.355469 482.015625 C 306.417969 463.21875 324.585938 449.171875 335.738281 445.039062 C 346.886719 440.910156 353.496094 437.808594 347.917969 437.605469 Z M 302.699219 436.15625 C 306.210938 435.332031 308.480469 432.234375 310.960938 429.753906 C 316.742188 424.175781 324.792969 421.285156 332.640625 419.839844 C 335.53125 419.21875 336.355469 416.949219 332.847656 417.152344 C 329.75 417.359375 326.238281 418.1875 323.140625 419.011719 C 316.535156 420.871094 310.546875 424.589844 305.796875 429.546875 C 304.144531 431.613281 302.496094 433.886719 302.699219 436.15625 Z M 318.394531 301.476562 C 319.21875 300.03125 319.425781 298.378906 319.425781 296.726562 C 320.042969 290.941406 321.492188 285.160156 323.761719 279.996094 C 325.207031 276.691406 334.910156 261.40625 329.957031 259.753906 C 323.554688 257.273438 318.394531 272.972656 316.949219 276.898438 C 314.058594 283.921875 311.578125 291.355469 311.992188 298.792969 C 311.992188 300.652344 312.613281 302.71875 314.261719 303.335938 C 315.914062 303.957031 317.566406 302.925781 318.394531 301.476562 Z M 418.121094 493.375 C 377.03125 495.648438 340.484375 495.234375 312.199219 477.472656 L 306.003906 484.082031 C 318.804688 497.300781 351.015625 502.671875 407.179688 503.496094 C 463.132812 504.53125 491.421875 517.75 491.421875 517.75 L 496.789062 513.207031 C 496.585938 513.207031 459.210938 491.105469 418.121094 493.375 Z M 333.878906 461.152344 C 340.898438 466.523438 376.414062 466.730469 372.695312 488.417969 C 373.109375 493.789062 377.03125 493.167969 377.238281 482.015625 C 377.445312 470.859375 326.859375 452.476562 333.878906 461.152344 Z M 315.503906 348.160156 C 311.992188 348.988281 329.542969 403.933594 341.105469 421.90625 C 346.0625 429.753906 351.429688 435.746094 355.972656 440.082031 C 358.035156 438.84375 360.101562 437.808594 362.375 436.570312 C 362.375 436.570312 364.851562 441.734375 372.285156 447.519531 C 372.078125 447.105469 371.871094 446.898438 371.664062 446.484375 C 366.914062 439.875 343.582031 418.808594 336.148438 401.457031 C 328.71875 384.105469 319.011719 347.335938 315.503906 348.160156 Z M 315.503906 348.160156 " fill-opacity="1" fill-rule="nonzero"/><path fill="#ffa382" d="M 827.15625 453.714844 C 813.734375 457.847656 803 467.761719 803 467.761719 C 773.058594 480.363281 733.207031 527.253906 733.207031 527.253906 C 733.207031 527.253906 734.652344 534.894531 736.925781 540.886719 C 735.480469 544.605469 732.382812 547.703125 729.078125 550.800781 C 722.058594 549.976562 714.832031 548.324219 714.832031 548.324219 C 684.066406 548.941406 652.683594 530.972656 641.324219 523.121094 C 643.390625 516.511719 645.457031 509.488281 647.726562 501.84375 C 663.210938 449.171875 698.3125 411.164062 708.226562 410.132812 C 718.136719 409.097656 736.71875 418.394531 736.71875 418.394531 C 736.71875 418.394531 751.171875 406 764.179688 407.859375 C 784.414062 411.988281 807.128906 432.441406 827.15625 453.714844 Z M 1187.875 549.355469 C 1196.960938 539.851562 1199.023438 516.71875 1199.023438 516.71875 C 1199.023438 516.71875 1206.25 500.398438 1199.851562 490.070312 C 1188.289062 471.480469 1168.054688 478.917969 1159.382812 473.546875 C 1156.902344 471.480469 1152.359375 460.945312 1152.359375 460.945312 C 1139.351562 460.738281 1138.941406 473.753906 1136.253906 479.535156 C 1129.648438 493.996094 1118.085938 499.160156 1127.996094 514.652344 C 1127.996094 514.652344 1139.558594 509.695312 1142.65625 507.835938 C 1142.65625 508.042969 1154.632812 551.007812 1187.875 549.355469 Z M 491.835938 300.652344 C 492.660156 302.097656 493.28125 304.371094 492.867188 306.023438 C 496.171875 304.78125 507.113281 300.445312 506.703125 298.585938 C 506.289062 296.3125 494.726562 300.238281 494.726562 300.238281 C 493.28125 292.390625 488.324219 280.613281 488.117188 285.367188 C 487.910156 288.050781 489.152344 294.25 490.183594 299.414062 C 491.007812 299.617188 491.628906 300.03125 491.835938 300.652344 Z M 1024.964844 480.984375 C 1024.550781 485.527344 1030.332031 490.691406 1038.382812 494.617188 C 1045.609375 497.300781 1053.871094 499.78125 1057.378906 500.8125 C 1058.414062 504.117188 1049.742188 506.597656 1049.535156 511.140625 C 1049.535156 512.792969 1049.328125 514.652344 1049.328125 516.097656 C 1049.328125 516.097656 1019.800781 516.304688 1018.769531 522.914062 C 1017.53125 529.523438 1040.863281 527.667969 1047.882812 528.90625 C 1071.421875 532.832031 1086.496094 531.175781 1093.515625 534.894531 L 1097.851562 532.003906 C 1097.851562 532.003906 1089.796875 514.445312 1090.832031 501.640625 C 1101.773438 501.226562 1128.203125 478.503906 1100.535156 472.925781 C 1099.914062 452.890625 1116.847656 445.453125 1116.847656 445.453125 C 1116.847656 445.453125 1097.4375 439.050781 1082.15625 415.5 C 1067.5 417.980469 1056.96875 433.058594 1056.96875 433.058594 C 1054.078125 437.191406 1048.707031 440.496094 1042.722656 442.148438 C 1036.734375 443.800781 1036.113281 448.964844 1038.382812 452.890625 C 1036.113281 455.574219 1033.429688 456.195312 1032.808594 458.054688 C 1032.191406 460.121094 1039.828125 463.21875 1038.382812 465.488281 C 1036.734375 467.761719 1031.570312 465.078125 1029.09375 465.902344 C 1027.441406 466.523438 1027.855469 469.621094 1028.0625 470.859375 C 1028.472656 474.992188 1025.167969 474.578125 1024.964844 480.984375 Z M 1024.964844 480.984375 " fill-opacity="1" fill-rule="nonzero"/><path fill="#fd725d" d="M 1140.179688 496.269531 C 1141.832031 499.160156 1142.863281 508.042969 1142.863281 508.042969 C 1141.832031 508.457031 1139.765625 509.695312 1137.496094 510.519531 C 1137.496094 510.316406 1137.496094 509.902344 1137.496094 509.695312 C 1137.699219 508.867188 1137.90625 507.835938 1138.113281 507.007812 C 1138.320312 505.976562 1138.527344 505.152344 1138.527344 504.117188 C 1138.113281 503.910156 1137.90625 503.703125 1137.496094 503.496094 C 1136.460938 502.878906 1135.429688 502.050781 1134.808594 500.8125 C 1134.605469 500.605469 1134.605469 500.191406 1134.605469 499.78125 C 1134.605469 499.367188 1135.015625 498.953125 1135.429688 499.160156 C 1135.429688 499.160156 1136.875 499.78125 1138.527344 500.605469 C 1138.527344 499.574219 1138.527344 498.539062 1138.527344 497.507812 C 1138.527344 497.09375 1138.527344 496.679688 1138.734375 496.269531 C 1138.941406 496.269531 1139.765625 496.0625 1140.179688 496.269531 Z M 1200.058594 517.335938 C 1199.851562 517.132812 1199.4375 516.71875 1199.230469 516.925781 C 1198.40625 518.785156 1191.796875 528.90625 1191.796875 528.90625 C 1191.589844 529.9375 1191.179688 530.765625 1191.179688 531.796875 C 1192.003906 532.210938 1192.625 531.382812 1193.035156 530.765625 C 1194.6875 528.078125 1196.339844 525.601562 1197.992188 522.914062 C 1198.820312 521.46875 1199.851562 519.816406 1200.058594 518.164062 C 1200.058594 517.75 1200.058594 517.542969 1200.058594 517.335938 Z M 1158.347656 472.101562 C 1156.492188 472.101562 1154.425781 472.101562 1152.566406 471.894531 C 1151.949219 471.6875 1151.121094 471.6875 1150.503906 472.101562 C 1149.882812 472.511719 1149.882812 473.546875 1150.503906 473.753906 C 1153.394531 474.992188 1164.542969 475.40625 1164.542969 475.40625 C 1162.683594 474.992188 1161.03125 474.578125 1159.792969 473.546875 C 1159.382812 473.132812 1158.96875 472.71875 1158.347656 472.101562 Z M 742.914062 416.535156 C 737.339844 414.46875 740.023438 419.839844 742.292969 421.078125 C 762.324219 432.851562 812.703125 474.785156 836.859375 505.5625 C 839.546875 509.074219 843.46875 504.945312 824.679688 483.667969 C 805.890625 462.183594 765.417969 424.796875 742.914062 416.535156 Z M 714.832031 472.925781 C 710.703125 468.382812 718.753906 488.210938 720.613281 494.824219 C 721.441406 498.332031 723.917969 508.664062 726.394531 518.164062 C 724.535156 530.765625 717.105469 544.8125 709.875 551.628906 C 704.09375 557.410156 697.902344 564.640625 698.109375 566.5 C 698.3125 568.359375 709.671875 556.585938 712.5625 553.488281 C 715.039062 550.59375 724.742188 540.886719 729.078125 528.285156 C 730.316406 532.625 731.351562 535.929688 732.175781 536.753906 C 734.449219 539.234375 735.273438 534.070312 733.414062 527.046875 C 726.601562 503.910156 718.753906 477.675781 714.832031 472.925781 Z M 404.703125 614.214844 C 401.398438 612.769531 388.597656 599.34375 384.464844 599.136719 C 380.542969 598.929688 374.96875 601.617188 372.695312 604.09375 C 367.742188 609.671875 380.542969 603.0625 384.464844 604.09375 C 388.390625 605.128906 399.125 615.042969 402.429688 616.695312 C 405.527344 618.140625 408.003906 615.664062 404.703125 614.214844 Z M 345.855469 631.566406 C 331.402344 627.023438 326.859375 625.371094 325.621094 628.882812 C 325.621094 629.503906 325.621094 629.914062 325.621094 630.121094 C 328.511719 634.046875 349.984375 629.503906 355.972656 659.039062 C 355.972656 659.039062 360.515625 658.628906 364.230469 658.007812 C 365.46875 657.800781 366.914062 657.183594 368.359375 656.355469 C 364.644531 648.710938 356.796875 634.871094 345.855469 631.566406 Z M 229.605469 577.65625 C 232.496094 589.429688 236.628906 596.453125 240.757812 600.789062 C 246.953125 586.949219 243.027344 571.664062 239.929688 563.816406 C 232.703125 568.359375 229.402344 574.144531 229.605469 577.65625 Z M 301.460938 579.515625 C 298.15625 580.132812 300.222656 581.371094 304.144531 584.265625 C 308.070312 587.15625 310.339844 596.453125 312.199219 601.617188 C 314.261719 606.988281 316.535156 612.152344 316.328125 606.160156 C 311.785156 584.058594 306.003906 579.925781 301.460938 579.515625 Z M 1038.382812 494.203125 C 1041.480469 496.0625 1044.992188 497.507812 1048.503906 498.539062 C 1049.535156 501.84375 1049.535156 506.597656 1049.535156 511.140625 C 1073.28125 515.890625 1084.429688 505.976562 1082.363281 503.496094 C 1080.09375 500.8125 1050.152344 498.746094 1038.382812 494.203125 Z M 1099.296875 494.824219 C 1099.503906 494.617188 1099.296875 494.203125 1099.089844 493.996094 C 1098.882812 493.789062 1098.675781 493.996094 1098.261719 493.996094 C 1097.023438 494.617188 1095.992188 495.441406 1094.753906 495.855469 C 1093.515625 496.269531 1091.863281 496.476562 1090.832031 495.648438 C 1090.625 495.648438 1090.625 495.441406 1090.417969 495.441406 C 1090.210938 495.234375 1089.796875 495.441406 1089.589844 495.648438 C 1089.589844 495.855469 1089.382812 496.269531 1089.589844 496.476562 C 1090.417969 500.605469 1096.816406 497.09375 1099.296875 494.824219 C 1099.914062 494.824219 1099.296875 495.027344 1099.296875 494.824219 Z M 1096.199219 481.601562 C 1095.578125 482.429688 1094.960938 483.460938 1095.371094 484.492188 C 1095.785156 485.320312 1096.613281 485.527344 1097.4375 485.734375 C 1098.261719 485.941406 1099.089844 486.765625 1098.882812 487.59375 C 1098.882812 488.003906 1098.46875 488.210938 1098.261719 488.625 C 1097.644531 489.246094 1096.816406 490.070312 1096.199219 490.691406 C 1095.992188 490.898438 1096.40625 491.515625 1096.816406 491.515625 C 1097.230469 491.515625 1097.644531 491.3125 1097.851562 491.105469 C 1098.882812 490.277344 1099.914062 489.453125 1100.742188 488.417969 C 1101.152344 487.800781 1101.566406 487.386719 1101.773438 486.558594 C 1101.980469 485.734375 1101.773438 485.113281 1101.359375 484.699219 C 1100.949219 484.289062 1100.121094 484.082031 1099.503906 484.082031 C 1098.882812 483.875 1098.261719 483.460938 1098.261719 482.839844 C 1098.261719 482.222656 1098.882812 481.808594 1099.296875 481.394531 C 1100.328125 480.777344 1101.359375 480.363281 1102.394531 479.949219 C 1103.011719 479.742188 1103.632812 479.535156 1104.25 479.125 C 1104.871094 478.710938 1105.488281 477.882812 1105.285156 477.265625 C 1101.980469 477.472656 1098.46875 478.917969 1096.199219 481.601562 Z M 1096.199219 481.601562 " fill-opacity="1" fill-rule="nonzero"/><path fill="#171717" d="M 736.71875 418.394531 C 736.71875 418.394531 715.453125 467.96875 720.40625 488.417969 C 720.40625 488.417969 686.339844 470.652344 675.1875 443.386719 C 688.816406 423.144531 702.648438 410.75 708.226562 410.132812 C 718.34375 408.890625 736.71875 418.394531 736.71875 418.394531 Z M 847.390625 514.652344 C 855.445312 520.644531 872.789062 540.472656 876.503906 540.886719 C 880.222656 541.507812 850.902344 507.835938 850.902344 507.835938 C 850.902344 507.835938 849.664062 510.316406 847.390625 514.652344 Z M 848.835938 610.5 C 843.261719 608.019531 830.875 599.964844 822.203125 594.800781 C 813.527344 589.84375 802.585938 593.972656 809.398438 595.832031 C 823.234375 596.453125 840.164062 620.207031 860.191406 617.523438 C 865.5625 617.316406 854.410156 612.976562 848.835938 610.5 Z M 405.734375 181.257812 C 404.496094 183.53125 411.101562 179.398438 413.992188 178.160156 C 416.882812 176.917969 428.652344 174.855469 424.109375 173.40625 C 424.109375 173.40625 412.753906 173.820312 405.734375 181.257812 Z M 415.4375 187.660156 C 414.199219 190.140625 414.40625 192.617188 416.058594 193.652344 C 417.503906 194.476562 419.980469 193.445312 421.425781 190.964844 C 422.25 189.519531 422.457031 188.28125 422.25 187.042969 C 425.554688 187.453125 425.144531 185.390625 420.1875 184.5625 C 416.675781 183.941406 410.070312 183.941406 409.242188 185.183594 C 408.210938 186.628906 412.339844 185.59375 417.296875 186.007812 C 416.46875 186.214844 415.851562 186.835938 415.4375 187.660156 Z M 495.140625 270.699219 C 494.933594 269.667969 494.519531 268.429688 494.105469 267.394531 C 492.25 263.261719 482.75 265.535156 483.164062 267.394531 C 483.574219 269.253906 484.402344 278.757812 484.402344 278.757812 L 495.550781 277.101562 C 495.550781 277.101562 495.550781 275.863281 495.550781 274.003906 C 517.851562 274.003906 527.144531 303.542969 534.164062 326.886719 C 541.390625 351.054688 554.191406 363.449219 564.308594 383.070312 C 574.425781 402.695312 567.40625 429.546875 554.398438 429.136719 C 541.390625 428.722656 526.9375 414.261719 519.917969 386.167969 C 512.894531 358.078125 513.101562 320.894531 507.941406 316.558594 L 506.703125 319.242188 C 510.832031 326.886719 506.90625 365.304688 521.15625 402.488281 C 535.402344 439.875 569.675781 441.941406 571.949219 407.652344 C 574.21875 373.363281 551.300781 370.882812 534.78125 315.9375 C 520.949219 270.082031 501.125 269.253906 495.140625 270.699219 Z M 1064.605469 442.976562 C 1064.195312 442.355469 1063.78125 441.734375 1063.367188 441.320312 C 1061.921875 440.082031 1059.652344 440.289062 1058 439.050781 C 1058 439.464844 1057.792969 439.875 1057.792969 440.289062 C 1058 440.910156 1058.414062 441.320312 1059.03125 441.527344 C 1059.652344 441.734375 1060.066406 441.941406 1060.683594 442.148438 C 1063.160156 442.976562 1064.402344 445.453125 1065.226562 447.726562 C 1065.433594 448.140625 1065.640625 448.550781 1066.050781 448.964844 C 1066.464844 449.378906 1067.085938 449.378906 1067.496094 449.378906 C 1067.910156 449.171875 1068.117188 448.964844 1067.910156 448.550781 C 1066.878906 446.484375 1065.640625 444.628906 1064.605469 442.976562 Z M 1040.863281 454.128906 C 1040.863281 454.128906 1041.070312 454.335938 1040.863281 454.128906 C 1041.070312 454.128906 1041.273438 453.921875 1041.273438 453.921875 C 1041.273438 453.507812 1041.6875 450.824219 1040.863281 451.238281 C 1040.242188 451.648438 1040.242188 453.714844 1040.863281 454.128906 Z M 1026.203125 450.824219 C 1026.203125 450.824219 1026.410156 450.824219 1026.203125 450.824219 M 1064.605469 434.917969 C 1066.257812 435.539062 1067.703125 436.570312 1068.738281 437.808594 C 1070.59375 440.082031 1071.007812 443.179688 1072.453125 445.660156 C 1072.660156 445.867188 1072.867188 446.074219 1073.074219 445.867188 C 1073.074219 445.867188 1073.074219 445.660156 1073.074219 445.453125 C 1072.867188 443.59375 1072.246094 441.734375 1071.832031 439.875 C 1071.628906 439.050781 1071.421875 438.222656 1070.800781 437.398438 C 1070.386719 436.777344 1069.769531 436.15625 1069.355469 435.539062 C 1068.53125 434.710938 1067.703125 433.886719 1066.878906 433.265625 C 1066.050781 432.644531 1064.402344 431.820312 1063.160156 432.234375 C 1061.714844 433.265625 1063.988281 434.503906 1064.605469 434.917969 Z M 1064.605469 434.917969 " fill-opacity="1" fill-rule="nonzero"/></svg>