<svg xmlns="http://www.w3.org/2000/svg" xmlns:xlink="http://www.w3.org/1999/xlink" width="2000" zoomAndPan="magnify" viewBox="0 0 1500 1499.999933" height="2000" preserveAspectRatio="xMidYMid meet" version="1.0"><defs><g/><clipPath id="b3e3aa1d11"><path d="M 548.425781 415.238281 L 952 415.238281 L 952 814.785156 L 548.425781 814.785156 Z M 548.425781 415.238281 " clip-rule="nonzero"/></clipPath><clipPath id="4eb427a402"><path d="M 617.425781 415.238281 L 882.574219 415.238281 C 900.875 415.238281 918.425781 422.507812 931.367188 435.449219 C 944.304688 448.386719 951.574219 465.9375 951.574219 484.238281 L 951.574219 745.785156 C 951.574219 764.085938 944.304688 781.636719 931.367188 794.578125 C 918.425781 807.515625 900.875 814.785156 882.574219 814.785156 L 617.425781 814.785156 C 599.125 814.785156 581.574219 807.515625 568.632812 794.578125 C 555.695312 781.636719 548.425781 764.085938 548.425781 745.785156 L 548.425781 484.238281 C 548.425781 465.9375 555.695312 448.386719 568.632812 435.449219 C 581.574219 422.507812 599.125 415.238281 617.425781 415.238281 Z M 617.425781 415.238281 " clip-rule="nonzero"/></clipPath><clipPath id="5dde8257e6"><path d="M 0.425781 0.238281 L 403.601562 0.238281 L 403.601562 399.785156 L 0.425781 399.785156 Z M 0.425781 0.238281 " clip-rule="nonzero"/></clipPath><clipPath id="de0c2057fa"><path d="M 69.425781 0.238281 L 334.574219 0.238281 C 352.875 0.238281 370.425781 7.507812 383.367188 20.449219 C 396.304688 33.386719 403.574219 50.9375 403.574219 69.238281 L 403.574219 330.785156 C 403.574219 349.085938 396.304688 366.636719 383.367188 379.578125 C 370.425781 392.515625 352.875 399.785156 334.574219 399.785156 L 69.425781 399.785156 C 51.125 399.785156 33.574219 392.515625 20.632812 379.578125 C 7.695312 366.636719 0.425781 349.085938 0.425781 330.785156 L 0.425781 69.238281 C 0.425781 50.9375 7.695312 33.386719 20.632812 20.449219 C 33.574219 7.507812 51.125 0.238281 69.425781 0.238281 Z M 69.425781 0.238281 " clip-rule="nonzero"/></clipPath><clipPath id="3defa16ca8"><rect x="0" width="404" y="0" height="400"/></clipPath><clipPath id="c183d6558d"><path d="M 575.566406 495 L 924.316406 495 L 924.316406 748.925781 L 575.566406 748.925781 Z M 575.566406 495 " clip-rule="nonzero"/></clipPath><clipPath id="87e9593d84"><path d="M 166 0.121094 L 349.238281 0.121094 L 349.238281 136 L 166 136 Z M 166 0.121094 " clip-rule="nonzero"/></clipPath><clipPath id="02cdca2968"><path d="M 0.671875 105 L 233 105 L 233 253.886719 L 0.671875 253.886719 Z M 0.671875 105 " clip-rule="nonzero"/></clipPath><clipPath id="a0d042fb9a"><rect x="0" width="350" y="0" height="254"/></clipPath><clipPath id="65733f2854"><rect x="0" width="816" y="0" height="328"/></clipPath></defs><g clip-path="url(#b3e3aa1d11)"><g clip-path="url(#4eb427a402)"><g transform="matrix(1, 0, 0, 1, 548, 415)"><g clip-path="url(#3defa16ca8)"><g clip-path="url(#5dde8257e6)"><g clip-path="url(#de0c2057fa)"><path fill="#42554f" d="M 0.425781 0.238281 L 403.09375 0.238281 L 403.09375 399.785156 L 0.425781 399.785156 Z M 0.425781 0.238281 " fill-opacity="1" fill-rule="nonzero"/></g></g></g></g></g></g><g clip-path="url(#c183d6558d)"><g transform="matrix(1, 0, 0, 1, 575, 495)"><g clip-path="url(#a0d042fb9a)"><g clip-path="url(#87e9593d84)"><path fill="#c1e973" d="M 193.421875 98.808594 C 190.460938 94.496094 218.777344 71.375 232.542969 62.160156 C 246.320312 52.921875 253.378906 33.117188 241.195312 21.082031 C 229.015625 9.066406 200.9375 10.824219 179.417969 23.949219 L 172.167969 28.003906 C 170.640625 29.148438 168.449219 28.839844 167.328125 27.308594 C 166.734375 26.523438 166.519531 25.5625 166.660156 24.640625 C 166.6875 24.617188 166.6875 24.574219 166.703125 24.535156 C 166.703125 24.535156 166.703125 24.523438 166.703125 24.507812 C 166.871094 23.707031 167.121094 23.128906 167.839844 22.59375 C 182.796875 6.984375 204.320312 2.289062 204.320312 2.289062 C 291.296875 -13.703125 279.917969 73.964844 280.3125 82.550781 C 280.707031 91.109375 280.804688 109.894531 293.019531 118.40625 C 305.234375 126.867188 344.667969 113.296875 344.667969 113.296875 C 346.480469 112.644531 348.328125 113.664062 348.953125 115.453125 C 349.390625 116.683594 349.113281 117.953125 348.34375 118.890625 C 348.320312 118.914062 348.277344 118.933594 348.277344 118.957031 C 348.210938 119 348.144531 119.089844 348.050781 119.175781 L 348.027344 119.175781 C 347.777344 119.417969 347.507812 119.59375 347.199219 119.726562 C 347.109375 119.769531 347 119.835938 346.863281 119.878906 C 341.457031 122.484375 307.113281 138.585938 290.972656 134.847656 C 273.398438 130.785156 258.59375 102.730469 232.542969 99.996094 C 208.527344 97.464844 195.902344 102.472656 193.414062 98.800781 Z M 193.421875 98.808594 " fill-opacity="1" fill-rule="nonzero"/></g><g clip-path="url(#02cdca2968)"><path fill="#c1e973" d="M 1.996094 247.230469 C 2.0625 247.164062 2.132812 247.121094 2.199219 247.082031 C 6.972656 243.234375 100.625 170.355469 143.964844 133.203125 C 189.566406 94.113281 230.519531 108.558594 230.519531 108.558594 C 230.519531 108.558594 237.769531 111.609375 223.082031 121.515625 C 208.050781 131.65625 216.132812 164.167969 219.660156 177.734375 C 223.140625 191.277344 231.40625 221.332031 143.285156 240.175781 C 143.042969 240.214844 142.769531 240.285156 142.5 240.324219 C 142.367188 240.367188 142.257812 240.367188 142.125 240.367188 C 140.117188 240.351562 138.496094 238.703125 138.511719 236.695312 C 138.53125 235.109375 139.566406 233.753906 141.003906 233.304688 C 141.164062 233.210938 141.320312 233.195312 141.472656 233.152344 C 146.757812 231.429688 195.199219 215.210938 196.027344 197.800781 C 196.722656 182.699219 184.089844 160.164062 179.492188 152.523438 C 178.617188 151.042969 176.71875 150.574219 175.238281 151.460938 L 6.234375 253.125 C 6.195312 253.164062 6.128906 253.214844 6.058594 253.234375 C 5.5 253.558594 4.871094 253.757812 4.179688 253.75 C 2.171875 253.734375 0.574219 252.085938 0.59375 250.082031 C 0.601562 248.917969 1.144531 247.898438 2.003906 247.230469 Z M 1.996094 247.230469 " fill-opacity="1" fill-rule="nonzero"/></g><path fill="#c1e973" d="M 296.632812 83.09375 C 291.742188 82.148438 285.957031 65.882812 288.882812 52.046875 C 290.660156 43.628906 295.511719 33.335938 306.421875 35.425781 C 317.054688 37.457031 317.378906 50.105469 315.785156 58.148438 C 312.984375 72.25 301.664062 84.0625 296.632812 83.09375 Z M 296.632812 83.09375 " fill-opacity="1" fill-rule="nonzero"/></g></g></g><g transform="matrix(1, 0, 0, 1, 342, 786)"><g clip-path="url(#65733f2854)"><g fill="#42554f" fill-opacity="1"><g transform="translate(2.250004, 258.27405)"><g><path d="M 33.640625 -154.21875 L 95.078125 -154.21875 C 98.234375 -154.21875 99.8125 -153.082031 99.8125 -150.8125 C 99.8125 -149.789062 99.078125 -147.921875 97.609375 -145.203125 C 96.148438 -142.492188 94.429688 -140.257812 92.453125 -138.5 C 90.765625 -136.96875 88.050781 -136.203125 84.3125 -136.203125 L 19.015625 -136.203125 C 17.921875 -136.203125 17.113281 -136.253906 16.59375 -136.359375 C 16.082031 -136.472656 15.625 -136.785156 15.21875 -137.296875 C 14.820312 -137.804688 14.625 -138.539062 14.625 -139.5 C 14.625 -142.207031 16.765625 -145.335938 21.046875 -148.890625 C 25.335938 -152.441406 29.535156 -154.21875 33.640625 -154.21875 Z M 14.734375 -3.625 L 14.734375 -56.609375 C 14.734375 -59.242188 15.628906 -61 17.421875 -61.875 C 19.210938 -62.757812 22.015625 -63.203125 25.828125 -63.203125 C 29.859375 -63.203125 32.695312 -62.757812 34.34375 -61.875 C 36 -61 36.828125 -59.242188 36.828125 -56.609375 L 36.828125 -15.28125 C 36.828125 -11.6875 36.054688 -9.007812 34.515625 -7.25 C 32.679688 -5.050781 30.097656 -3.109375 26.765625 -1.421875 C 23.429688 0.253906 20.703125 1.09375 18.578125 1.09375 C 16.015625 1.09375 14.734375 -0.476562 14.734375 -3.625 Z M 14.734375 -74.3125 L 14.734375 -123 C 14.734375 -125.644531 15.628906 -127.40625 17.421875 -128.28125 C 19.210938 -129.15625 22.015625 -129.59375 25.828125 -129.59375 C 29.929688 -129.59375 32.789062 -129.171875 34.40625 -128.328125 C 36.019531 -127.492188 36.828125 -125.71875 36.828125 -123 L 36.828125 -92.34375 C 36.828125 -89.332031 38.328125 -87.828125 41.328125 -87.828125 L 86.078125 -87.828125 C 89.222656 -87.828125 90.796875 -86.691406 90.796875 -84.421875 C 90.796875 -83.398438 90.0625 -81.515625 88.59375 -78.765625 C 87.132812 -76.015625 85.414062 -73.757812 83.4375 -72 C 81.75 -70.53125 79.035156 -69.796875 75.296875 -69.796875 L 19.234375 -69.796875 C 16.234375 -69.796875 14.734375 -71.300781 14.734375 -74.3125 Z M 14.734375 -74.3125 "/></g></g></g><g fill="#42554f" fill-opacity="1"><g transform="translate(108.861781, 258.27405)"><g><path d="M 36.71875 -151.703125 L 36.71875 -15.28125 C 36.71875 -11.6875 35.945312 -9.007812 34.40625 -7.25 C 32.570312 -5.050781 29.988281 -3.109375 26.65625 -1.421875 C 23.320312 0.253906 20.59375 1.09375 18.46875 1.09375 C 15.90625 1.09375 14.625 -0.476562 14.625 -3.625 L 14.625 -140.046875 C 14.625 -143.117188 15.390625 -145.570312 16.921875 -147.40625 C 18.828125 -149.675781 21.425781 -151.742188 24.71875 -153.609375 C 28.019531 -155.484375 30.738281 -156.421875 32.875 -156.421875 C 35.4375 -156.421875 36.71875 -154.847656 36.71875 -151.703125 Z M 36.71875 -151.703125 "/></g></g></g><g fill="#42554f" fill-opacity="1"><g transform="translate(160.189307, 258.27405)"><g><path d="M 98.15625 -136.203125 L 8.140625 -136.203125 C 4.984375 -136.203125 3.40625 -137.335938 3.40625 -139.609375 C 3.40625 -140.628906 4.132812 -142.492188 5.59375 -145.203125 C 7.0625 -147.921875 8.785156 -150.160156 10.765625 -151.921875 C 12.453125 -153.453125 15.164062 -154.21875 18.90625 -154.21875 L 108.9375 -154.21875 C 112.082031 -154.21875 113.65625 -153.082031 113.65625 -150.8125 C 113.65625 -149.789062 112.921875 -147.921875 111.453125 -145.203125 C 109.992188 -142.492188 108.273438 -140.257812 106.296875 -138.5 C 104.609375 -136.96875 101.894531 -136.203125 98.15625 -136.203125 Z M 45.515625 -3.625 L 45.40625 -123 C 45.40625 -125.644531 46.300781 -127.382812 48.09375 -128.21875 C 49.882812 -129.0625 52.648438 -129.484375 56.390625 -129.484375 C 60.492188 -129.484375 63.367188 -129.0625 65.015625 -128.21875 C 66.671875 -127.382812 67.5 -125.644531 67.5 -123 L 67.5 -15.28125 C 67.5 -12.125 66.765625 -9.671875 65.296875 -7.921875 C 63.390625 -5.640625 60.769531 -3.566406 57.4375 -1.703125 C 54.101562 0.160156 51.410156 1.09375 49.359375 1.09375 C 46.796875 1.09375 45.515625 -0.476562 45.515625 -3.625 Z M 45.515625 -3.625 "/></g></g></g><g fill="#42554f" fill-opacity="1"><g transform="translate(277.242442, 258.27405)"><g><path d="M 41.65625 -136.421875 L 18.90625 -136.421875 C 17.957031 -136.421875 17.207031 -136.457031 16.65625 -136.53125 C 16.101562 -136.601562 15.625 -136.835938 15.21875 -137.234375 C 14.820312 -137.640625 14.625 -138.207031 14.625 -138.9375 C 14.625 -142.019531 16.710938 -145.28125 20.890625 -148.71875 C 25.066406 -152.164062 29.28125 -154 33.53125 -154.21875 C 38.289062 -154.4375 44.445312 -154.546875 52 -154.546875 C 55.070312 -154.546875 57.875 -154.472656 60.40625 -154.328125 C 62.9375 -154.179688 65.976562 -153.816406 69.53125 -153.234375 C 73.082031 -152.648438 76.210938 -151.84375 78.921875 -150.8125 C 81.640625 -149.789062 84.441406 -148.289062 87.328125 -146.3125 C 90.222656 -144.332031 92.625 -142.003906 94.53125 -139.328125 C 96.4375 -136.648438 98.007812 -133.273438 99.25 -129.203125 C 100.5 -125.140625 101.125 -120.582031 101.125 -115.53125 C 101.125 -104.6875 96.691406 -95.742188 87.828125 -88.703125 C 86.578125 -87.753906 85.953125 -86.914062 85.953125 -86.1875 C 85.953125 -85.226562 86.503906 -84.566406 87.609375 -84.203125 C 97.429688 -80.972656 104.757812 -76.171875 109.59375 -69.796875 C 114.425781 -63.421875 116.84375 -54.773438 116.84375 -43.859375 C 116.84375 -39.828125 116.273438 -35.8125 115.140625 -31.8125 C 114.003906 -27.820312 112.171875 -23.90625 109.640625 -20.0625 C 107.117188 -16.21875 104.039062 -12.8125 100.40625 -9.84375 C 96.78125 -6.875 92.253906 -4.488281 86.828125 -2.6875 C 81.410156 -0.894531 75.441406 0 68.921875 0 C 66.359375 0 65.078125 -0.695312 65.078125 -2.09375 C 65.078125 -3.039062 65.660156 -3.804688 66.828125 -4.390625 C 75.921875 -8.421875 82.628906 -13.585938 86.953125 -19.890625 C 91.273438 -26.191406 93.4375 -34.035156 93.4375 -43.421875 C 93.4375 -62.109375 84.273438 -72.914062 65.953125 -75.84375 C 64.785156 -76.0625 64.203125 -76.6875 64.203125 -77.71875 C 64.203125 -78.664062 65.078125 -79.765625 66.828125 -81.015625 C 70.710938 -83.867188 73.863281 -87.585938 76.28125 -92.171875 C 78.707031 -96.753906 79.921875 -101.828125 79.921875 -107.390625 C 79.921875 -112.378906 79.203125 -116.6875 77.765625 -120.3125 C 76.335938 -123.9375 74.503906 -126.753906 72.265625 -128.765625 C 70.035156 -130.785156 67.144531 -132.398438 63.59375 -133.609375 C 60.039062 -134.816406 56.613281 -135.585938 53.3125 -135.921875 C 50.007812 -136.253906 46.125 -136.421875 41.65625 -136.421875 Z M 14.625 -4.734375 L 14.625 -123.21875 C 14.625 -125.863281 15.519531 -127.625 17.3125 -128.5 C 19.101562 -129.382812 21.867188 -129.828125 25.609375 -129.828125 C 29.710938 -129.828125 32.585938 -129.40625 34.234375 -128.5625 C 35.890625 -127.71875 36.71875 -125.9375 36.71875 -123.21875 L 36.71875 -97.28125 C 36.71875 -94.28125 38.21875 -92.78125 41.21875 -92.78125 L 60.5625 -92.78125 C 63.71875 -92.78125 65.296875 -91.789062 65.296875 -89.8125 C 65.296875 -88.925781 64.488281 -87.492188 62.875 -85.515625 C 61.257812 -83.535156 59.28125 -81.890625 56.9375 -80.578125 C 54.375 -79.109375 49.132812 -77.675781 41.21875 -76.28125 C 38.21875 -75.695312 36.71875 -73.757812 36.71875 -70.46875 L 36.71875 -22.53125 C 36.71875 -19.53125 38.21875 -18.03125 41.21875 -18.03125 L 64.859375 -18.03125 C 68.003906 -18.03125 69.578125 -17.113281 69.578125 -15.28125 C 69.578125 -13.738281 67.816406 -11.757812 64.296875 -9.34375 C 60.785156 -6.925781 56.335938 -4.765625 50.953125 -2.859375 C 45.566406 -0.953125 40.640625 0 36.171875 0 L 19.125 0 C 16.125 0 14.625 -1.578125 14.625 -4.734375 Z M 14.625 -4.734375 "/></g></g></g><g fill="#42554f" fill-opacity="1"><g transform="translate(404.187392, 258.27405)"><g><path d="M 132.5625 -81.890625 C 132.5625 -71.992188 132.046875 -63.160156 131.015625 -55.390625 C 129.992188 -47.628906 128.515625 -40.722656 126.578125 -34.671875 C 124.640625 -28.628906 122.257812 -23.390625 119.4375 -18.953125 C 116.613281 -14.523438 113.367188 -10.734375 109.703125 -7.578125 C 105.304688 -3.703125 101.53125 -1.765625 98.375 -1.765625 C 96.84375 -1.765625 96.078125 -2.675781 96.078125 -4.5 C 96.078125 -5.09375 96.625 -6.101562 97.71875 -7.53125 C 98.820312 -8.957031 99.882812 -10.660156 100.90625 -12.640625 C 106.769531 -23.703125 109.703125 -40.484375 109.703125 -62.984375 C 109.703125 -67.015625 109.703125 -71.703125 109.703125 -77.046875 C 109.703125 -82.398438 109.351562 -87.914062 108.65625 -93.59375 C 107.957031 -99.28125 106.765625 -104.867188 105.078125 -110.359375 C 103.398438 -115.859375 100.835938 -120.769531 97.390625 -125.09375 C 93.941406 -129.414062 89.453125 -132.914062 83.921875 -135.59375 C 78.390625 -138.269531 71.484375 -139.609375 63.203125 -139.609375 C 56.753906 -139.609375 50.453125 -138.394531 44.296875 -135.96875 C 38.140625 -133.550781 32.019531 -129.960938 25.9375 -125.203125 L 22.421875 -122.453125 C 21.765625 -121.867188 21.03125 -121.351562 20.21875 -120.90625 C 19.414062 -120.46875 18.832031 -120.25 18.46875 -120.25 C 16.925781 -120.25 16.15625 -120.984375 16.15625 -122.453125 C 16.15625 -124.722656 17.734375 -127.875 20.890625 -131.90625 C 27.484375 -140.332031 35.25 -146.722656 44.1875 -151.078125 C 53.125 -155.441406 62.539062 -157.625 72.4375 -157.625 C 82.40625 -157.625 91.144531 -156.125 98.65625 -153.125 C 106.164062 -150.125 112.429688 -145.523438 117.453125 -139.328125 C 122.472656 -133.140625 126.242188 -125.28125 128.765625 -115.75 C 131.296875 -106.21875 132.5625 -94.929688 132.5625 -81.890625 Z M 38.46875 -116.40625 C 38.46875 -115.75 38.101562 -113.457031 37.375 -109.53125 C 36.644531 -105.613281 35.910156 -100.429688 35.171875 -93.984375 C 34.441406 -87.535156 34.078125 -80.90625 34.078125 -74.09375 C 34.078125 -68.8125 34.238281 -64.007812 34.5625 -59.6875 C 34.894531 -55.363281 35.460938 -50.816406 36.265625 -46.046875 C 37.078125 -41.285156 38.328125 -37.128906 40.015625 -33.578125 C 41.703125 -30.023438 43.789062 -26.765625 46.28125 -23.796875 C 48.769531 -20.828125 51.957031 -18.554688 55.84375 -16.984375 C 59.726562 -15.410156 64.160156 -14.625 69.140625 -14.625 C 73.535156 -14.625 77.414062 -15.082031 80.78125 -16 C 84.15625 -16.914062 86.757812 -17.8125 88.59375 -18.6875 C 90.425781 -19.5625 91.675781 -20 92.34375 -20 C 93.945312 -20 94.75 -19.125 94.75 -17.375 C 94.75 -15.539062 94.050781 -13.484375 92.65625 -11.203125 C 91.269531 -8.929688 89.332031 -6.675781 86.84375 -4.4375 C 84.351562 -2.207031 80.984375 -0.34375 76.734375 1.15625 C 72.484375 2.65625 67.898438 3.40625 62.984375 3.40625 C 53.085938 3.40625 44.734375 1.773438 37.921875 -1.484375 C 31.109375 -4.742188 25.773438 -9.671875 21.921875 -16.265625 C 18.078125 -22.859375 15.332031 -30.476562 13.6875 -39.125 C 12.039062 -47.78125 11.21875 -58.078125 11.21875 -70.015625 C 11.21875 -88.117188 13.046875 -100.648438 16.703125 -107.609375 C 18.753906 -111.421875 21.6875 -114.519531 25.5 -116.90625 C 29.3125 -119.289062 32.5 -120.484375 35.0625 -120.484375 C 37.332031 -120.484375 38.46875 -119.125 38.46875 -116.40625 Z M 38.46875 -116.40625 "/></g></g></g><g fill="#42554f" fill-opacity="1"><g transform="translate(548.058335, 258.27405)"><g><path d="M 132.5625 -81.890625 C 132.5625 -71.992188 132.046875 -63.160156 131.015625 -55.390625 C 129.992188 -47.628906 128.515625 -40.722656 126.578125 -34.671875 C 124.640625 -28.628906 122.257812 -23.390625 119.4375 -18.953125 C 116.613281 -14.523438 113.367188 -10.734375 109.703125 -7.578125 C 105.304688 -3.703125 101.53125 -1.765625 98.375 -1.765625 C 96.84375 -1.765625 96.078125 -2.675781 96.078125 -4.5 C 96.078125 -5.09375 96.625 -6.101562 97.71875 -7.53125 C 98.820312 -8.957031 99.882812 -10.660156 100.90625 -12.640625 C 106.769531 -23.703125 109.703125 -40.484375 109.703125 -62.984375 C 109.703125 -67.015625 109.703125 -71.703125 109.703125 -77.046875 C 109.703125 -82.398438 109.351562 -87.914062 108.65625 -93.59375 C 107.957031 -99.28125 106.765625 -104.867188 105.078125 -110.359375 C 103.398438 -115.859375 100.835938 -120.769531 97.390625 -125.09375 C 93.941406 -129.414062 89.453125 -132.914062 83.921875 -135.59375 C 78.390625 -138.269531 71.484375 -139.609375 63.203125 -139.609375 C 56.753906 -139.609375 50.453125 -138.394531 44.296875 -135.96875 C 38.140625 -133.550781 32.019531 -129.960938 25.9375 -125.203125 L 22.421875 -122.453125 C 21.765625 -121.867188 21.03125 -121.351562 20.21875 -120.90625 C 19.414062 -120.46875 18.832031 -120.25 18.46875 -120.25 C 16.925781 -120.25 16.15625 -120.984375 16.15625 -122.453125 C 16.15625 -124.722656 17.734375 -127.875 20.890625 -131.90625 C 27.484375 -140.332031 35.25 -146.722656 44.1875 -151.078125 C 53.125 -155.441406 62.539062 -157.625 72.4375 -157.625 C 82.40625 -157.625 91.144531 -156.125 98.65625 -153.125 C 106.164062 -150.125 112.429688 -145.523438 117.453125 -139.328125 C 122.472656 -133.140625 126.242188 -125.28125 128.765625 -115.75 C 131.296875 -106.21875 132.5625 -94.929688 132.5625 -81.890625 Z M 38.46875 -116.40625 C 38.46875 -115.75 38.101562 -113.457031 37.375 -109.53125 C 36.644531 -105.613281 35.910156 -100.429688 35.171875 -93.984375 C 34.441406 -87.535156 34.078125 -80.90625 34.078125 -74.09375 C 34.078125 -68.8125 34.238281 -64.007812 34.5625 -59.6875 C 34.894531 -55.363281 35.460938 -50.816406 36.265625 -46.046875 C 37.078125 -41.285156 38.328125 -37.128906 40.015625 -33.578125 C 41.703125 -30.023438 43.789062 -26.765625 46.28125 -23.796875 C 48.769531 -20.828125 51.957031 -18.554688 55.84375 -16.984375 C 59.726562 -15.410156 64.160156 -14.625 69.140625 -14.625 C 73.535156 -14.625 77.414062 -15.082031 80.78125 -16 C 84.15625 -16.914062 86.757812 -17.8125 88.59375 -18.6875 C 90.425781 -19.5625 91.675781 -20 92.34375 -20 C 93.945312 -20 94.75 -19.125 94.75 -17.375 C 94.75 -15.539062 94.050781 -13.484375 92.65625 -11.203125 C 91.269531 -8.929688 89.332031 -6.675781 86.84375 -4.4375 C 84.351562 -2.207031 80.984375 -0.34375 76.734375 1.15625 C 72.484375 2.65625 67.898438 3.40625 62.984375 3.40625 C 53.085938 3.40625 44.734375 1.773438 37.921875 -1.484375 C 31.109375 -4.742188 25.773438 -9.671875 21.921875 -16.265625 C 18.078125 -22.859375 15.332031 -30.476562 13.6875 -39.125 C 12.039062 -47.78125 11.21875 -58.078125 11.21875 -70.015625 C 11.21875 -88.117188 13.046875 -100.648438 16.703125 -107.609375 C 18.753906 -111.421875 21.6875 -114.519531 25.5 -116.90625 C 29.3125 -119.289062 32.5 -120.484375 35.0625 -120.484375 C 37.332031 -120.484375 38.46875 -119.125 38.46875 -116.40625 Z M 38.46875 -116.40625 "/></g></g></g><g fill="#42554f" fill-opacity="1"><g transform="translate(691.929277, 258.27405)"><g><path d="M 36.71875 -151.703125 L 36.71875 -15.28125 C 36.71875 -11.6875 35.945312 -9.007812 34.40625 -7.25 C 32.570312 -5.050781 29.988281 -3.109375 26.65625 -1.421875 C 23.320312 0.253906 20.59375 1.09375 18.46875 1.09375 C 15.90625 1.09375 14.625 -0.476562 14.625 -3.625 L 14.625 -140.046875 C 14.625 -143.117188 15.390625 -145.570312 16.921875 -147.40625 C 18.828125 -149.675781 21.425781 -151.742188 24.71875 -153.609375 C 28.019531 -155.484375 30.738281 -156.421875 32.875 -156.421875 C 35.4375 -156.421875 36.71875 -154.847656 36.71875 -151.703125 Z M 95.859375 -3.40625 L 45.28125 -75.625 C 43.75 -77.75 42.984375 -79.691406 42.984375 -81.453125 C 42.984375 -84.015625 44.265625 -86.945312 46.828125 -90.25 L 88.265625 -145.203125 C 91.710938 -149.828125 94.847656 -152.851562 97.671875 -154.28125 C 100.492188 -155.707031 104.648438 -156.421875 110.140625 -156.421875 C 114.171875 -156.421875 116.1875 -155.320312 116.1875 -153.125 C 116.1875 -151.507812 115.125 -149.382812 113 -146.75 L 69.140625 -91.34375 C 67.015625 -88.632812 65.953125 -86.472656 65.953125 -84.859375 C 65.953125 -83.316406 67.050781 -81.082031 69.25 -78.15625 L 113 -19.78125 C 114.539062 -17.65625 115.3125 -15.710938 115.3125 -13.953125 C 115.3125 -11.898438 114.6875 -9.8125 113.4375 -7.6875 C 109.78125 -1.832031 105.898438 1.09375 101.796875 1.09375 C 99.960938 1.09375 97.984375 -0.40625 95.859375 -3.40625 Z M 95.859375 -3.40625 "/></g></g></g></g></g></svg>